<svg width="14" height="19" viewBox="0 0 14 19" fill="none" xmlns="http://www.w3.org/2000/svg">
<rect width="14" height="19" fill="#E5E5E5"/>
<g clip-path="url(#clip0_342_144)">
<rect width="1920" height="8826" transform="translate(-518 -2342)" fill="white"/>
<path d="M6.44678 17.8984C6.76318 18.3906 7.50146 18.3906 7.81787 17.8984C12.9507 10.5156 13.8999 9.74219 13.8999 7C13.8999 3.27344 10.8765 0.25 7.1499 0.25C3.38818 0.25 0.399902 3.27344 0.399902 7C0.399902 9.74219 1.31396 10.5156 6.44678 17.8984ZM7.1499 9.8125C5.56787 9.8125 4.3374 8.58203 4.3374 7C4.3374 5.45312 5.56787 4.1875 7.1499 4.1875C8.69678 4.1875 9.9624 5.45312 9.9624 7C9.9624 8.58203 8.69678 9.8125 7.1499 9.8125Z" fill="#FFB30E"/>
<path d="M6.44678 17.8984C6.76318 18.3906 7.50146 18.3906 7.81787 17.8984C12.9507 10.5156 13.8999 9.74219 13.8999 7C13.8999 3.27344 10.8765 0.25 7.1499 0.25C3.38818 0.25 0.399902 3.27344 0.399902 7C0.399902 9.74219 1.31396 10.5156 6.44678 17.8984ZM7.1499 9.8125C5.56787 9.8125 4.3374 8.58203 4.3374 7C4.3374 5.45312 5.56787 4.1875 7.1499 4.1875C8.69678 4.1875 9.9624 5.45312 9.9624 7C9.9624 8.58203 8.69678 9.8125 7.1499 9.8125Z" fill="#FFB30E"/>
</g>
<defs>
<clipPath id="clip0_342_144">
<rect width="1920" height="8826" fill="white" transform="translate(-518 -2342)"/>
</clipPath>
</defs>
</svg>
