<?xml version="1.0" standalone="no"?>
<!DOCTYPE svg PUBLIC "-//W3C//DTD SVG 20010904//EN"
 "http://www.w3.org/TR/2001/REC-SVG-20010904/DTD/svg10.dtd">
<svg version="1.0" xmlns="http://www.w3.org/2000/svg"
 width="656.000000pt" height="527.000000pt" viewBox="0 0 656.000000 527.000000"
 preserveAspectRatio="xMidYMid meet">

<g transform="translate(0.000000,527.000000) scale(0.100000,-0.100000)"
fill="#000000" stroke="none">
<path d="M3612 4598 c2 -75 6 -93 18 -93 11 0 16 13 18 48 3 38 7 47 22 47 15
0 19 -9 22 -47 2 -35 7 -48 18 -48 22 0 25 70 5 102 -12 18 -23 24 -41 20 -22
-4 -24 -1 -24 29 0 28 -4 34 -20 34 -20 0 -21 -5 -18 -92z"/>
<path d="M4160 4657 c0 -31 -2 -33 -29 -29 -58 8 -94 -65 -52 -107 14 -14 33
-19 65 -19 l46 1 0 94 c0 76 -3 93 -15 93 -10 0 -15 -10 -15 -33z m-5 -78 c8
-26 -16 -54 -39 -46 -16 6 -22 48 -9 60 14 14 42 6 48 -14z"/>
<path d="M3351 4658 c0 -22 54 -146 63 -148 4 0 18 21 30 47 l22 48 26 -55 26
-55 16 38 c9 21 25 60 36 87 19 48 19 50 2 50 -12 0 -25 -16 -38 -47 l-20 -48
-22 48 c-11 26 -24 47 -27 47 -3 0 -15 -21 -26 -47 -23 -52 -23 -51 -49 20 -9
27 -40 38 -39 15z"/>
<path d="M3900 4645 c0 -8 -4 -15 -10 -15 -5 0 -10 -7 -10 -15 0 -8 5 -15 10
-15 6 0 10 -15 10 -34 0 -19 7 -42 16 -50 20 -20 54 -21 54 -1 0 8 -6 15 -14
15 -15 0 -26 21 -26 51 0 12 7 19 20 19 11 0 20 7 20 15 0 8 -9 15 -20 15 -11
0 -20 7 -20 15 0 8 -7 15 -15 15 -8 0 -15 -7 -15 -15z"/>
<path d="M3772 4618 c-19 -19 -14 -26 19 -24 18 0 34 -5 36 -11 3 -9 -7 -13
-30 -13 -27 0 -37 -5 -42 -20 -10 -32 11 -48 60 -48 l45 1 0 52 c0 57 -12 75
-50 75 -14 0 -31 -5 -38 -12z m53 -78 c-3 -5 -13 -10 -21 -10 -8 0 -14 5 -14
10 0 6 9 10 21 10 11 0 17 -4 14 -10z"/>
<path d="M4240 4610 c-11 -11 -20 -31 -20 -45 0 -30 36 -65 67 -65 30 0 63 34
63 65 0 14 -9 34 -20 45 -11 11 -31 20 -45 20 -14 0 -34 -9 -45 -20z m74 -32
c8 -14 7 -21 -6 -34 -30 -30 -75 9 -48 42 16 18 39 15 54 -8z"/>
<path d="M4440 4621 c0 -5 9 -31 20 -57 22 -50 20 -74 -5 -74 -8 0 -15 -7 -15
-15 0 -9 10 -15 26 -15 22 0 30 10 60 74 38 83 41 96 20 96 -8 0 -20 -16 -26
-35 -6 -19 -15 -35 -19 -35 -4 0 -13 16 -20 35 -11 31 -41 50 -41 26z"/>
<path d="M4602 4614 c-45 -32 -18 -114 39 -114 26 0 69 39 69 64 0 27 -39 66
-66 66 -11 0 -30 -7 -42 -16z m66 -47 c4 -31 -20 -46 -43 -27 -18 15 -20 46
-2 53 25 11 42 1 45 -26z"/>
<path d="M4733 4615 c-9 -26 5 -89 24 -102 46 -34 93 3 93 73 0 38 -3 45 -17
42 -13 -2 -19 -16 -23 -48 -3 -31 -10 -45 -20 -45 -11 0 -16 13 -18 48 -2 33
-7 47 -18 47 -8 0 -17 -7 -21 -15z"/>
<path d="M3352 4288 c2 -75 6 -93 18 -93 10 0 17 14 20 45 4 32 10 46 22 48
14 3 17 -6 20 -45 2 -35 7 -48 18 -48 11 0 16 13 18 46 4 55 -17 83 -55 76
-20 -4 -23 0 -23 29 0 28 -4 34 -20 34 -20 0 -21 -5 -18 -92z"/>
<path d="M4864 4350 c-4 -16 -10 -30 -15 -30 -5 0 -9 -7 -9 -15 0 -8 5 -15 10
-15 6 0 10 -22 10 -50 0 -38 4 -50 15 -50 11 0 15 12 15 50 0 38 4 50 15 50 8
0 15 7 15 15 0 8 -7 15 -15 15 -8 0 -15 7 -15 15 0 8 7 15 15 15 8 0 15 7 15
15 0 9 -9 15 -25 15 -20 0 -27 -6 -31 -30z"/>
<path d="M5192 4348 c-21 -21 -13 -30 18 -23 34 7 42 -13 15 -35 -8 -7 -15
-16 -15 -21 0 -15 26 -10 43 9 32 35 15 82 -28 82 -12 0 -26 -5 -33 -12z"/>
<path d="M4190 4335 c0 -8 -4 -15 -10 -15 -5 0 -10 -7 -10 -15 0 -8 5 -15 10
-15 6 0 10 -15 10 -34 0 -19 7 -42 16 -50 20 -20 54 -21 54 -1 0 8 -6 15 -14
15 -15 0 -26 21 -26 51 0 12 7 19 20 19 11 0 20 7 20 15 0 8 -9 15 -20 15 -11
0 -20 7 -20 15 0 8 -7 15 -15 15 -8 0 -15 -7 -15 -15z"/>
<path d="M4550 4335 c0 -8 -4 -15 -10 -15 -5 0 -10 -7 -10 -15 0 -8 5 -15 10
-15 6 0 10 -17 10 -39 0 -41 18 -65 46 -59 26 5 29 28 5 28 -17 0 -21 6 -21
35 0 24 5 35 15 35 8 0 15 7 15 15 0 8 -7 15 -15 15 -8 0 -15 7 -15 15 0 8 -7
15 -15 15 -8 0 -15 -7 -15 -15z"/>
<path d="M3510 4305 c-13 -16 -11 -17 29 -19 36 -2 39 -26 3 -26 -37 0 -60
-25 -45 -48 7 -12 25 -17 57 -17 l46 -1 0 51 c0 28 -5 56 -12 63 -17 17 -63
15 -78 -3z m60 -75 c0 -5 -9 -10 -20 -10 -11 0 -20 5 -20 10 0 6 9 10 20 10
11 0 20 -4 20 -10z"/>
<path d="M3620 4315 c0 -19 63 -126 70 -119 5 5 20 35 34 67 21 46 23 57 11
57 -9 0 -23 -16 -32 -35 l-17 -36 -18 36 c-10 19 -25 35 -33 35 -8 0 -15 -2
-15 -5z"/>
<path d="M3780 4300 c-51 -51 5 -130 74 -104 29 11 18 32 -15 30 -18 0 -34 5
-36 12 -3 8 8 12 36 12 33 0 41 4 41 18 0 25 -31 52 -58 52 -12 0 -31 -9 -42
-20z m65 -20 c4 -6 -5 -10 -19 -10 -14 0 -26 5 -26 10 0 6 9 10 19 10 11 0 23
-4 26 -10z"/>
<path d="M3992 4308 c-19 -19 -14 -26 19 -24 18 0 34 -5 36 -11 3 -9 -7 -13
-30 -13 -27 0 -37 -5 -42 -20 -10 -32 11 -48 60 -48 l45 1 0 52 c0 57 -12 75
-50 75 -14 0 -31 -5 -38 -12z m53 -78 c-3 -5 -13 -10 -21 -10 -8 0 -14 5 -14
10 0 6 9 10 21 10 11 0 17 -4 14 -10z"/>
<path d="M4302 4308 c-19 -19 -14 -26 19 -24 18 0 34 -5 36 -11 3 -9 -7 -13
-30 -13 -27 0 -37 -5 -42 -20 -10 -32 11 -48 60 -48 l45 1 0 52 c0 57 -12 75
-50 75 -14 0 -31 -5 -38 -12z m53 -78 c-3 -5 -13 -10 -21 -10 -8 0 -14 5 -14
10 0 6 9 10 21 10 11 0 17 -4 14 -10z"/>
<path d="M4430 4305 c-16 -20 -6 -43 25 -57 35 -16 32 -32 -5 -24 -22 4 -30 2
-30 -9 0 -19 48 -31 69 -18 24 15 20 55 -7 69 -35 17 -40 27 -10 22 17 -3 29
0 32 8 10 25 -54 33 -74 9z"/>
<path d="M4651 4294 c-27 -34 -26 -50 4 -79 28 -28 53 -31 81 -10 20 15 18 16
-30 18 -51 3 -43 27 9 27 43 0 46 1 40 23 -16 51 -71 63 -104 21z m69 -14 c0
-5 -12 -10 -26 -10 -14 0 -23 4 -19 10 3 6 15 10 26 10 10 0 19 -4 19 -10z"/>
<path d="M4950 4300 c-27 -27 -25 -62 3 -88 44 -42 107 -16 107 43 0 58 -69
86 -110 45z m70 -25 c15 -18 7 -43 -16 -52 -24 -9 -46 24 -33 48 12 23 32 24
49 4z"/>
<path d="M5090 4254 c0 -49 3 -64 14 -64 10 0 16 14 18 43 2 32 8 44 26 52 35
16 26 32 -18 32 l-40 0 0 -63z"/>
<path d="M5203 4224 c-9 -23 13 -40 32 -24 12 10 13 16 4 26 -15 18 -28 18
-36 -2z"/>
<path d="M3653 3610 c0 -25 2 -35 4 -22 2 12 2 32 0 45 -2 12 -4 2 -4 -23z"/>
<path d="M3753 3605 c0 -22 2 -30 4 -17 2 12 2 30 0 40 -3 9 -5 -1 -4 -23z"/>
<path d="M4540 3606 c0 -19 3 -37 8 -40 4 -2 6 13 4 35 -5 48 -12 51 -12 5z"/>
<path d="M4200 3601 c0 -17 4 -32 8 -35 4 -2 6 11 4 30 -5 42 -12 45 -12 5z"/>
<path d="M3369 3602 c24 -19 15 -41 -11 -26 -10 5 -10 4 -1 -6 10 -11 15 -11
27 0 18 14 13 26 -17 41 -20 9 -20 9 2 -9z"/>
<path d="M3414 3605 c-7 -17 12 -45 30 -45 6 0 2 6 -9 12 -19 12 -19 12 5 19
24 7 25 7 2 8 -13 1 -20 6 -17 11 3 6 4 10 0 10 -3 0 -8 -7 -11 -15z"/>
<path d="M3584 3605 c-7 -17 12 -45 29 -45 6 0 2 6 -8 14 -11 8 -16 19 -12 30
4 9 4 16 1 16 -2 0 -7 -7 -10 -15z"/>
<path d="M3688 3593 c5 -21 7 -23 10 -9 2 10 0 22 -6 28 -6 6 -7 0 -4 -19z"/>
<path d="M3860 3595 c0 -14 2 -25 4 -25 2 0 6 11 8 25 3 14 1 25 -3 25 -5 0
-9 -11 -9 -25z"/>
<path d="M3968 3593 c5 -21 7 -23 10 -9 2 10 0 22 -6 28 -6 6 -7 0 -4 -19z"/>
<path d="M4030 3595 c0 -14 2 -25 4 -25 2 0 6 11 8 25 3 14 1 25 -3 25 -5 0
-9 -11 -9 -25z"/>
<path d="M4073 3605 c-7 -21 -3 -23 27 -14 25 7 25 7 2 8 -13 1 -20 6 -17 11
3 6 4 10 0 10 -3 0 -8 -7 -12 -15z"/>
<path d="M4140 3610 c0 -6 7 -13 15 -16 8 -4 15 -11 15 -16 0 -6 -8 -7 -17 -3
-15 5 -16 4 -5 -6 9 -10 15 -10 24 -1 9 9 7 16 -10 32 -12 12 -22 16 -22 10z"/>
<path d="M4272 3595 c0 -16 2 -22 5 -12 2 9 2 23 0 30 -3 6 -5 -1 -5 -18z"/>
<path d="M4300 3595 c0 -14 2 -25 4 -25 2 0 6 11 8 25 3 14 1 25 -3 25 -5 0
-9 -11 -9 -25z"/>
<path d="M4401 3604 c0 -11 3 -14 6 -6 3 7 2 16 -1 19 -3 4 -6 -2 -5 -13z"/>
<path d="M4441 3596 c-1 -22 -5 -27 -18 -21 -15 5 -16 4 -5 -6 17 -18 35 2 29
32 -4 21 -4 21 -6 -5z"/>
<path d="M4470 3595 c0 -14 2 -25 4 -25 2 0 6 11 8 25 3 14 1 25 -3 25 -5 0
-9 -11 -9 -25z"/>
<path d="M4508 3593 c5 -21 7 -23 10 -9 2 10 0 22 -6 28 -6 6 -7 0 -4 -19z"/>
<path d="M3780 3591 c0 -10 29 -36 34 -30 1 2 -6 12 -16 22 -10 9 -18 13 -18
8z"/>
<path d="M4381 3584 c0 -11 3 -14 6 -6 3 7 2 16 -1 19 -3 4 -6 -2 -5 -13z"/>
<path d="M3480 3583 c0 -19 21 -27 33 -13 9 10 9 11 -2 5 -8 -4 -17 -2 -22 6
-6 9 -9 10 -9 2z"/>
<path d="M3930 3581 c0 -10 19 -25 25 -20 1 2 -3 10 -11 17 -8 7 -14 8 -14 3z"/>
<path d="M4340 3581 c0 -10 19 -25 25 -20 1 2 -3 10 -11 17 -8 7 -14 8 -14 3z"/>
<path d="M663 3553 c-5 -10 -7 -53 -5 -96 3 -66 6 -78 20 -75 12 2 18 15 20
41 4 51 35 48 42 -3 7 -50 34 -47 38 3 4 49 -19 87 -53 87 -18 0 -25 5 -25 19
0 10 -6 24 -14 30 -12 10 -16 9 -23 -6z"/>
<path d="M1212 3558 c-7 -7 -12 -20 -12 -30 0 -13 -8 -18 -25 -18 -53 0 -84
-70 -51 -115 11 -15 25 -19 62 -17 26 1 50 4 53 8 9 9 3 166 -7 176 -4 4 -13
3 -20 -4z m-14 -111 c4 -21 -25 -34 -40 -19 -8 8 -8 16 2 27 16 19 34 15 38
-8z"/>
<path d="M403 3513 c10 -53 46 -123 62 -123 8 0 20 11 25 24 14 39 27 38 50
-1 25 -43 35 -37 68 46 27 66 27 81 3 81 -12 0 -23 -11 -30 -31 -9 -26 -13
-30 -26 -19 -8 6 -17 20 -20 31 -9 27 -34 24 -45 -5 -14 -37 -28 -39 -45 -6
-20 39 -50 41 -42 3z"/>
<path d="M940 3510 c-8 -16 -7 -34 4 -74 16 -54 39 -73 67 -55 11 6 10 11 -4
27 -19 21 -22 48 -7 57 16 10 12 36 -7 51 -25 19 -41 17 -53 -6z"/>
<path d="M820 3495 c-6 -8 -9 -19 -5 -25 3 -5 -1 -20 -9 -32 -25 -36 -5 -58
54 -58 l50 0 0 55 c0 43 -4 56 -19 65 -28 14 -56 13 -71 -5z"/>
<path d="M1285 3485 c-38 -37 -29 -76 22 -103 39 -21 93 13 93 60 0 62 -70 89
-115 43z m65 -30 c13 -16 6 -35 -15 -35 -18 0 -28 17 -21 35 7 19 20 19 36 0z"/>
<path d="M1646 3489 c-14 -11 -26 -29 -26 -40 0 -78 97 -101 133 -33 l15 28
15 -31 c21 -39 54 -49 87 -24 20 15 25 27 25 62 0 33 -4 45 -17 47 -13 2 -17
-5 -20 -35 -4 -50 -31 -52 -38 -3 -6 42 -35 53 -44 16 l-6 -24 -29 29 c-35 34
-59 36 -95 8z m62 -47 c3 -17 -2 -22 -17 -22 -14 0 -21 6 -21 18 0 38 33 41
38 4z"/>
<path d="M1490 3488 c0 -7 7 -32 16 -55 16 -41 16 -44 -1 -63 -23 -26 -6 -51
23 -34 20 13 81 122 82 147 0 24 -26 21 -45 -5 l-16 -23 -16 23 c-17 24 -43
30 -43 10z"/>
<path d="M405 3247 c-3 -7 -5 -49 -3 -93 2 -62 6 -79 18 -79 10 0 16 12 18 38
4 51 35 48 42 -3 8 -53 34 -47 38 9 4 48 -15 78 -51 83 -13 2 -23 13 -27 27
-6 28 -27 39 -35 18z"/>
<path d="M1905 3227 c-17 -42 -9 -146 12 -154 18 -7 20 -5 27 42 4 22 11 44
16 49 5 5 5 17 -1 29 -8 13 -8 22 0 30 19 19 12 37 -15 37 -19 0 -28 -8 -39
-33z"/>
<path d="M2240 3225 c-13 -16 -6 -35 15 -35 11 0 13 -8 9 -30 -8 -36 5 -38 34
-7 24 26 28 57 10 75 -16 16 -53 15 -68 -3z"/>
<path d="M1230 3200 c-14 -27 14 -126 38 -132 37 -10 61 23 27 36 -17 6 -20
42 -5 51 16 10 12 36 -7 51 -25 19 -41 17 -53 -6z"/>
<path d="M1582 3200 c-9 -15 -10 -26 -2 -40 5 -10 10 -30 10 -44 0 -32 45 -65
63 -47 9 9 9 16 -1 29 -23 32 -24 43 -7 62 17 19 17 21 0 40 -23 26 -47 25
-63 0z"/>
<path d="M567 3189 c-11 -6 -16 -17 -12 -28 3 -9 -1 -26 -9 -36 -24 -34 -3
-55 54 -55 55 0 67 15 56 76 -9 47 -49 66 -89 43z"/>
<path d="M825 3175 c-14 -13 -25 -29 -25 -34 0 -50 59 -93 100 -71 12 6 19 18
16 25 -3 8 -1 17 4 20 18 11 10 54 -12 69 -32 22 -55 20 -83 -9z"/>
<path d="M1041 3186 c-6 -7 -9 -20 -5 -29 3 -8 1 -18 -5 -22 -17 -10 -13 -53
7 -64 10 -5 33 -6 52 -2 33 6 35 9 38 50 2 30 -2 49 -14 62 -20 22 -57 25 -73
5z"/>
<path d="M1350 3185 c-6 -8 -9 -19 -5 -24 3 -6 -1 -24 -9 -40 -14 -26 -14 -30
0 -42 19 -16 84 -13 101 4 17 16 3 95 -19 108 -20 13 -54 10 -68 -6z"/>
<path d="M1480 3185 c-11 -13 -11 -23 -3 -46 7 -17 7 -31 2 -35 -30 -18 18
-49 55 -34 26 9 36 47 19 64 -5 4 -8 20 -8 34 0 22 -5 28 -26 30 -15 2 -31 -4
-39 -13z"/>
<path d="M1702 3180 c-40 -38 -23 -97 33 -114 28 -8 46 6 60 48 11 32 10 39
-7 61 -24 30 -57 32 -86 5z"/>
<path d="M2002 3184 c-15 -10 -22 -25 -22 -48 0 -66 73 -92 117 -42 29 34 29
51 -2 81 -28 29 -61 32 -93 9z m66 -47 c4 -20 -25 -34 -40 -19 -15 15 -1 44
19 40 10 -2 19 -11 21 -21z"/>
<path d="M670 3180 c0 -16 41 -94 53 -102 6 -4 15 -4 19 -2 12 8 48 81 48 99
0 19 -29 20 -36 0 -4 -8 -13 -15 -20 -15 -8 0 -17 7 -20 15 -7 17 -44 21 -44
5z"/>
<path d="M2136 3174 c-15 -39 -3 -104 19 -104 15 0 25 22 25 56 0 14 7 27 15
30 8 4 15 12 15 20 0 20 -66 19 -74 -2z"/>
<path d="M2254 3106 c-7 -19 3 -36 22 -36 10 0 14 8 12 22 -4 26 -26 36 -34
14z"/>
<path d="M3510 3062 c-105 -67 -167 -191 -100 -200 14 -2 83 -22 153 -44 71
-22 130 -38 132 -36 1 1 -19 58 -45 126 -27 67 -50 134 -52 150 -4 38 -33 39
-88 4z m78 -3 c1 -9 -8 -20 -21 -26 -40 -19 -97 -74 -117 -114 -23 -44 -38
-55 -52 -41 -24 24 38 117 116 174 42 30 69 33 74 7z m-8 -54 c-16 -20 -6 -45
19 -45 15 0 23 -11 33 -42 7 -24 21 -59 30 -78 23 -45 5 -54 -27 -14 -21 26
-26 27 -44 17 -28 -18 -41 -16 -41 4 0 12 -3 14 -11 6 -8 -8 -23 -7 -55 4 -24
8 -44 18 -44 22 0 21 62 97 100 122 44 30 63 32 40 4z m27 -31 c-9 -9 -28 6
-21 18 4 6 10 6 17 -1 6 -6 8 -13 4 -17z m13 -149 c0 -9 -6 -12 -15 -9 -8 4
-12 10 -9 15 8 14 24 10 24 -6z"/>
<path d="M3545 3050 c-3 -5 -2 -10 4 -10 5 0 13 5 16 10 3 6 2 10 -4 10 -5 0
-13 -4 -16 -10z"/>
<path d="M3484 2915 c-8 -20 4 -35 26 -35 23 0 32 13 24 34 -8 20 -43 21 -50
1z m41 -4 c7 -12 -12 -24 -25 -16 -11 7 -4 25 10 25 5 0 11 -4 15 -9z"/>
<path d="M3564 2916 c-8 -21 3 -36 27 -36 15 0 20 6 17 22 -4 27 -35 37 -44
14z m36 -11 c0 -8 -7 -15 -15 -15 -16 0 -20 12 -8 23 11 12 23 8 23 -8z"/>
<path d="M6104 3063 c-33 -36 -57 -92 -45 -107 5 -6 21 -51 35 -99 24 -78 30
-88 48 -85 18 2 28 22 55 107 23 72 30 108 23 115 -5 5 -10 17 -10 26 0 9 -11
22 -25 28 -14 6 -25 18 -25 27 0 24 -29 18 -56 -12z m46 -8 c0 -9 12 -20 28
-26 25 -10 26 -11 9 -24 -16 -12 -16 -13 3 -18 11 -3 20 -10 20 -17 0 -7 -21
-10 -65 -8 -70 3 -87 19 -33 29 21 4 25 7 11 8 -30 1 -40 21 -14 28 11 3 18 9
15 14 -6 11 4 29 17 29 5 0 9 -7 9 -15z m25 -187 c-13 -40 -27 -74 -32 -75 -8
-3 -24 39 -49 130 -5 15 2 17 49 17 l55 0 -23 -72z"/>
<path d="M5246 3041 c-68 -10 -112 -57 -121 -134 -6 -48 -4 -59 19 -95 47 -74
96 -77 96 -5 0 57 71 112 136 105 45 -4 62 14 45 46 -15 29 -92 92 -109 91 -9
-1 -39 -5 -66 -8z m25 -89 c20 -37 21 -45 9 -52 -24 -15 -33 -12 -80 29 l-45
40 35 29 c39 33 36 35 81 -46z m49 23 c0 -30 -3 -55 -7 -55 -12 0 -63 97 -56
104 4 3 19 6 35 6 27 0 28 -1 28 -55z m68 2 c33 -30 28 -47 -13 -47 -34 0 -35
1 -35 41 0 43 5 44 48 6z m-181 -76 c18 -14 33 -29 33 -33 0 -5 -24 -8 -54 -8
-53 0 -53 0 -49 28 10 61 10 61 70 13z m13 -97 c0 -45 -25 -44 -53 4 l-19 32
36 0 c35 0 36 -1 36 -36z"/>
<path d="M4532 2455 c0 -32 2 -42 6 -27 4 13 12 23 17 23 6 0 13 -10 17 -23 6
-19 7 -18 5 7 -1 19 -7 30 -17 30 -8 0 -18 9 -22 20 -3 12 -6 -1 -6 -30z"/>
<path d="M5302 2455 c0 -27 2 -44 5 -37 4 9 8 10 18 2 10 -8 13 -5 11 14 -1
17 -4 22 -13 14 -8 -7 -13 0 -16 24 -3 23 -4 18 -5 -17z"/>
<path d="M5367 2493 c-10 -10 -8 -83 2 -83 5 0 11 20 13 45 3 43 -1 53 -15 38z"/>
<path d="M3390 2450 c0 -35 3 -40 24 -40 49 0 60 61 13 74 -35 9 -37 8 -37
-34z m53 8 c7 -21 -4 -38 -24 -38 -14 0 -19 7 -19 25 0 18 5 25 19 25 11 0 21
-6 24 -12z"/>
<path d="M5050 2449 c0 -38 1 -40 28 -37 24 3 27 7 24 33 -4 30 -16 45 -39 45
-8 0 -13 -15 -13 -41z m34 10 c-8 -14 -24 -10 -24 6 0 9 6 12 15 9 8 -4 12
-10 9 -15z m6 -29 c0 -5 -7 -10 -15 -10 -8 0 -15 5 -15 10 0 6 7 10 15 10 8 0
15 -4 15 -10z"/>
<path d="M5950 2449 c0 -38 1 -40 28 -37 34 4 44 45 16 65 -32 23 -44 16 -44
-28z m48 -1 c-5 -34 -38 -37 -38 -4 0 20 5 26 21 26 15 0 20 -5 17 -22z"/>
<path d="M4260 2445 c0 -32 3 -35 28 -34 16 1 20 3 10 6 -12 3 -18 14 -18 34
0 16 -4 29 -10 29 -5 0 -10 -16 -10 -35z"/>
<path d="M5522 2449 c2 -18 9 -34 18 -36 12 -4 12 -3 1 5 -8 6 -11 18 -7 30 4
11 2 23 -4 27 -8 5 -10 -4 -8 -26z"/>
<path d="M6322 2448 c2 -17 8 -33 14 -35 6 -2 8 10 6 32 -5 44 -24 47 -20 3z"/>
<path d="M3518 2462 c-19 -4 -26 -52 -8 -52 6 0 10 9 10 20 0 11 5 20 10 20 6
0 10 -9 10 -20 0 -11 5 -20 10 -20 14 0 12 36 -2 47 -7 5 -21 8 -30 5z"/>
<path d="M3583 2463 c-15 -6 -18 -53 -3 -53 6 0 10 9 10 20 0 27 17 25 23 -2
4 -16 5 -14 4 6 -2 30 -12 38 -34 29z"/>
<path d="M3650 2455 c-17 -21 -5 -45 22 -44 22 1 22 1 -2 9 -22 7 -22 8 -4 9
28 1 36 11 23 28 -15 17 -24 17 -39 -2z m25 -5 c3 -5 -1 -10 -10 -10 -9 0 -13
5 -10 10 3 6 8 10 10 10 2 0 7 -4 10 -10z"/>
<path d="M3723 2463 c-7 -3 -12 -17 -12 -31 1 -21 2 -23 6 -7 3 11 10 23 16
27 14 9 6 17 -10 11z"/>
<path d="M4403 2463 c-7 -2 -13 -17 -12 -31 0 -26 1 -26 9 -4 5 12 14 22 19
22 5 0 12 -10 14 -22 4 -16 5 -14 4 6 -2 30 -12 38 -34 29z"/>
<path d="M4470 2455 c-17 -21 -5 -45 22 -44 l23 2 -22 4 c-29 5 -30 33 -2 33
11 0 17 5 14 10 -9 14 -21 12 -35 -5z"/>
<path d="M5133 2463 c-7 -3 -13 -17 -13 -31 l0 -27 15 29 c17 32 16 36 -2 29z"/>
<path d="M5170 2455 c-17 -21 -5 -45 22 -44 22 0 22 1 3 9 -19 8 -19 9 3 9 25
1 28 11 10 29 -16 16 -23 15 -38 -3z m35 -5 c3 -5 -1 -10 -9 -10 -9 0 -16 5
-16 10 0 6 4 10 9 10 6 0 13 -4 16 -10z"/>
<path d="M5240 2459 c-13 -9 -12 -10 2 -5 10 3 20 1 23 -3 2 -5 -4 -11 -15
-14 -29 -7 -25 -27 6 -27 22 0 25 4 22 27 -3 30 -16 38 -38 22z m27 -35 c-3
-3 -12 -4 -19 -1 -8 3 -5 6 6 6 11 1 17 -2 13 -5z"/>
<path d="M5404 2458 c-5 -8 -2 -9 9 -5 10 3 17 2 17 -3 0 -6 -7 -10 -15 -10
-8 0 -15 -7 -15 -15 0 -9 9 -15 25 -15 27 0 35 26 13 48 -15 15 -25 15 -34 0z"/>
<path d="M5470 2460 c-13 -9 -13 -12 3 -24 18 -14 18 -14 0 -19 -14 -4 -14 -5
5 -6 13 -1 22 5 22 14 0 8 -4 15 -10 15 -5 0 -10 5 -10 11 0 5 5 7 12 3 7 -4
8 -3 4 4 -9 14 -7 14 -26 2z"/>
<path d="M6042 2461 c-22 -14 -10 -46 18 -48 l25 -2 -25 8 c-25 9 -25 9 -2 10
16 1 22 6 20 18 -4 20 -18 26 -36 14z m23 -11 c3 -5 -1 -10 -10 -10 -9 0 -13
5 -10 10 3 6 8 10 10 10 2 0 7 -4 10 -10z"/>
<path d="M6105 2460 c-4 -6 -2 -17 5 -24 8 -11 8 -15 -2 -19 -7 -3 -3 -6 10
-6 25 -1 30 17 7 25 -8 4 -15 10 -15 16 0 5 5 6 10 3 6 -3 10 -1 10 4 0 14
-17 14 -25 1z"/>
<path d="M6154 2458 c-4 -6 1 -17 10 -24 16 -12 16 -13 -1 -17 -14 -4 -14 -5
5 -6 13 -1 22 5 22 14 0 8 -4 15 -10 15 -5 0 -10 5 -10 11 0 5 5 7 12 3 7 -4
8 -3 4 4 -9 15 -23 15 -32 0z"/>
<path d="M6215 2457 c-24 -18 -9 -47 24 -46 l26 1 -25 8 c-24 8 -24 8 -2 9 24
1 30 26 8 34 -8 3 -21 0 -31 -6z m30 -7 c3 -5 -1 -10 -10 -10 -9 0 -13 5 -10
10 3 6 8 10 10 10 2 0 7 -4 10 -10z"/>
<path d="M6293 2463 c-7 -3 -12 -17 -12 -31 1 -21 2 -23 6 -7 3 11 10 23 16
27 14 9 6 17 -10 11z"/>
<path d="M2965 2440 c10 -11 20 -18 23 -15 7 6 -18 35 -31 35 -5 0 -2 -9 8
-20z"/>
<path d="M3470 2435 c0 -14 5 -25 10 -25 6 0 10 11 10 25 0 14 -4 25 -10 25
-5 0 -10 -11 -10 -25z"/>
<path d="M4322 2438 c2 -15 11 -24 26 -26 19 -3 22 1 21 25 -2 23 -2 24 -6 6
-5 -28 -23 -30 -23 -3 0 11 -5 20 -11 20 -6 0 -9 -10 -7 -22z"/>
<path d="M2965 2390 c-10 -11 -13 -20 -8 -20 13 0 38 29 31 35 -3 3 -13 -4
-23 -15z"/>
<path d="M1340 2294 c0 -33 -2 -36 -24 -30 -30 7 -76 -27 -76 -58 0 -12 7 -31
15 -44 13 -18 25 -21 65 -21 l50 2 0 93 c0 77 -3 94 -15 94 -11 0 -15 -11 -15
-36z m-2 -97 c-4 -33 -52 -31 -56 2 -2 13 2 27 9 32 20 12 51 -9 47 -34z"/>
<path d="M1000 2297 c-81 -41 -51 -157 41 -157 29 0 43 7 63 31 14 17 26 37
26 45 0 28 -28 70 -55 82 -33 15 -44 15 -75 -1z m68 -33 c24 -17 30 -62 10
-82 -7 -7 -24 -12 -38 -12 -33 0 -50 17 -50 51 0 24 30 59 50 59 3 0 16 -7 28
-16z"/>
<path d="M375 2257 c14 -25 25 -59 25 -80 0 -30 4 -37 20 -37 16 0 20 7 20 36
0 20 11 54 26 80 24 41 25 44 7 44 -11 0 -25 -11 -31 -25 -6 -14 -15 -25 -20
-25 -5 0 -15 11 -22 25 -7 14 -22 25 -32 25 -17 0 -17 -3 7 -43z"/>
<path d="M517 2249 c-49 -38 -26 -109 36 -109 55 0 88 69 50 102 -32 28 -58
30 -86 7z m67 -36 c8 -20 -11 -43 -35 -43 -25 0 -36 40 -14 56 20 15 41 9 49
-13z"/>
<path d="M1427 2249 c-53 -41 -23 -114 44 -107 46 4 51 28 5 28 -19 0 -38 5
-41 10 -4 6 12 10 39 10 38 0 46 3 46 18 0 49 -54 72 -93 41z m61 -26 c2 -8
-6 -13 -22 -13 -25 0 -33 10 -19 24 10 10 36 3 41 -11z"/>
<path d="M650 2212 c0 -26 5 -53 12 -60 18 -18 63 -14 81 6 22 24 23 102 3
102 -10 0 -16 -14 -18 -42 -2 -35 -7 -43 -23 -43 -16 0 -21 8 -23 43 -2 28 -8
42 -18 42 -10 0 -14 -13 -14 -48z"/>
<path d="M790 2199 c0 -52 2 -59 20 -59 17 0 20 7 20 44 0 35 4 45 20 49 35 9
22 26 -20 25 l-40 0 0 -59z"/>
<path d="M1150 2200 c0 -53 2 -60 20 -60 17 0 20 7 20 41 0 32 4 42 20 46 37
10 23 33 -20 33 l-40 0 0 -60z"/>
<path d="M1550 2199 c0 -46 3 -59 15 -59 11 0 15 11 15 41 0 32 4 42 20 46 34
9 23 31 -15 31 l-35 0 0 -59z"/>
<path d="M3700 2080 c0 -33 4 -60 10 -60 6 0 10 14 10 30 0 20 5 30 15 30 10
0 15 -10 15 -30 0 -16 5 -30 11 -30 6 0 9 16 7 38 -3 31 -7 37 -25 36 -18 0
-23 5 -23 23 0 13 -4 23 -10 23 -6 0 -10 -27 -10 -60z"/>
<path d="M3350 2070 l0 -50 33 1 c23 1 26 3 10 6 -20 4 -23 11 -23 49 0 24 -4
44 -10 44 -5 0 -10 -22 -10 -50z"/>
<path d="M3840 2071 c0 -28 5 -51 10 -51 6 0 10 9 10 20 0 11 4 20 10 20 5 0
14 -9 20 -20 6 -11 15 -20 21 -20 6 0 7 6 2 12 -4 7 -7 29 -8 48 0 32 -3 35
-32 38 l-33 3 0 -50z m56 28 c3 -6 0 -15 -7 -20 -22 -14 -29 -11 -29 11 0 21
24 27 36 9z"/>
<path d="M4102 2104 c-7 -8 -8 -15 -2 -19 6 -3 10 -19 10 -36 0 -24 4 -29 23
-29 20 1 20 2 5 11 -21 12 -24 45 -6 51 10 4 9 8 -2 20 -13 12 -18 13 -28 2z"/>
<path d="M4577 2107 c-10 -27 8 -82 28 -84 11 -2 14 0 8 3 -17 7 -17 51 -1 56
9 3 8 9 -4 21 -20 20 -24 21 -31 4z"/>
<path d="M4760 2070 c0 -27 5 -50 10 -50 6 0 10 14 10 32 l0 32 35 -34 35 -34
0 52 c0 29 -4 52 -10 52 -5 0 -10 -15 -10 -32 l-1 -33 -28 33 c-15 17 -31 32
-34 32 -4 0 -7 -22 -7 -50z"/>
<path d="M5150 2114 c0 -5 7 -19 15 -30 8 -10 15 -30 15 -44 1 -22 2 -21 14
10 28 75 29 77 10 53 l-16 -23 -19 23 c-10 12 -18 17 -19 11z"/>
<path d="M3432 2065 c2 -33 7 -41 27 -43 28 -4 41 12 41 51 0 38 -18 34 -22
-5 -4 -39 -22 -44 -26 -8 -6 44 -24 49 -20 5z"/>
<path d="M3520 2059 c0 -21 5 -39 10 -39 6 0 10 14 10 30 0 20 5 30 15 30 10
0 15 -10 15 -30 0 -16 5 -30 11 -30 6 0 9 16 7 38 -3 34 -6 37 -35 39 -32 1
-33 0 -33 -38z"/>
<path d="M3622 2088 c-25 -25 -6 -68 29 -68 10 0 21 4 24 10 4 6 -4 9 -17 7
-17 -1 -24 4 -26 21 -3 18 1 22 23 22 15 0 24 4 20 10 -8 14 -38 13 -53 -2z"/>
<path d="M3946 2084 c-19 -18 -19 -20 -6 -45 11 -19 60 -27 60 -10 0 5 -8 7
-19 4 -10 -3 -22 0 -25 6 -5 7 4 11 23 11 32 0 41 16 19 38 -16 16 -33 15 -52
-4z m39 -4 c3 -6 -4 -10 -17 -10 -18 0 -20 2 -8 10 19 12 18 12 25 0z"/>
<path d="M4033 2084 c-4 -10 1 -22 10 -29 24 -17 21 -28 -5 -20 -18 6 -20 4
-12 -5 7 -6 20 -10 30 -8 27 5 29 35 4 43 -11 3 -18 10 -15 15 3 5 13 6 22 3
11 -4 14 -3 9 5 -11 17 -36 15 -43 -4z"/>
<path d="M4175 2090 c-3 -5 3 -10 14 -10 28 0 27 -18 -1 -22 -36 -5 -28 -32
10 -36 29 -3 32 -1 32 25 0 42 -38 71 -55 43z m30 -50 c-3 -5 -10 -10 -16 -10
-5 0 -9 5 -9 10 0 6 7 10 16 10 8 0 12 -4 9 -10z"/>
<path d="M4250 2058 c0 -21 5 -38 10 -38 6 0 10 14 10 30 0 17 5 30 10 30 6 0
10 4 10 8 0 4 -9 8 -20 8 -16 0 -20 -7 -20 -38z"/>
<path d="M4315 2091 c-3 -7 2 -11 14 -11 28 0 27 -18 -1 -22 -36 -5 -28 -33
10 -36 33 -3 33 -3 30 35 -2 30 -7 39 -25 41 -11 2 -24 -2 -28 -7z m35 -51 c0
-5 -7 -10 -15 -10 -8 0 -15 5 -15 10 0 6 7 10 15 10 8 0 15 -4 15 -10z"/>
<path d="M4403 2065 c2 -36 5 -40 27 -40 22 0 25 4 27 40 l1 40 -6 -35 c-4
-22 -13 -35 -22 -35 -9 0 -18 13 -22 35 l-6 35 1 -40z"/>
<path d="M4491 2056 c1 -37 2 -38 8 -11 9 43 38 45 44 3 4 -28 4 -27 3 7 -1
36 -3 40 -28 41 -26 1 -28 -1 -27 -40z"/>
<path d="M4647 2093 c-13 -13 -7 -32 13 -38 11 -4 18 -11 14 -16 -3 -6 -12 -8
-20 -5 -8 3 -14 1 -14 -4 0 -16 47 -12 53 4 3 8 -4 21 -16 30 -19 13 -20 15
-4 15 10 1 15 6 12 11 -7 11 -28 13 -38 3z"/>
<path d="M4882 2088 c-25 -25 -7 -68 29 -68 10 0 21 5 25 11 4 7 0 9 -14 5
-11 -4 -23 -2 -27 4 -4 6 4 10 20 10 22 0 26 4 23 23 -3 25 -36 35 -56 15z
m48 -14 c0 -2 -9 -4 -21 -4 -11 0 -18 4 -14 10 5 8 35 3 35 -6z"/>
<path d="M4975 2090 c-3 -5 3 -10 14 -10 28 0 27 -18 -1 -22 -36 -5 -28 -32
10 -36 29 -3 32 -1 32 25 0 42 -38 71 -55 43z m30 -50 c-3 -5 -10 -10 -16 -10
-5 0 -9 5 -9 10 0 6 7 10 16 10 8 0 12 -4 9 -10z"/>
<path d="M5050 2058 c0 -21 5 -38 10 -38 6 0 10 14 10 30 0 17 5 30 10 30 6 0
10 4 10 8 0 4 -9 8 -20 8 -16 0 -20 -7 -20 -38z"/>
<path d="M5240 2085 c-26 -32 13 -81 48 -59 34 22 22 74 -18 74 -10 0 -23 -7
-30 -15z m53 -19 c7 -17 -18 -40 -33 -31 -5 3 -10 15 -10 26 0 23 35 27 43 5z"/>
<path d="M5330 2073 c0 -39 13 -55 41 -51 20 2 25 10 27 41 2 20 -1 37 -7 37
-5 0 -11 -15 -13 -32 -2 -18 -7 -33 -13 -33 -5 0 -11 15 -13 33 -4 39 -22 43
-22 5z"/>
<path d="M3326 1769 c-24 -28 -34 -59 -20 -59 10 0 54 37 49 42 -2 2 7 5 21 6
24 2 23 -2 -25 -59 l-51 -61 0 -475 0 -475 29 -29 29 -29 206 0 c185 0 236 6
191 24 -8 3 -15 0 -15 -6 0 -7 -7 -5 -17 4 -10 9 -26 18 -36 19 -21 4 -19 7
46 64 19 17 23 25 13 25 -9 0 -16 8 -16 17 0 15 -2 14 -16 -3 -13 -16 -15 -16
-10 -1 4 14 -1 17 -31 17 -29 0 -34 3 -25 12 7 7 12 22 12 34 0 30 23 46 62
42 34 -3 39 6 23 45 -4 10 -3 17 4 17 6 0 11 -9 11 -20 0 -11 5 -20 10 -20 17
0 11 52 -7 66 -16 13 -14 13 15 9 18 -3 32 -1 32 5 0 5 -4 10 -9 10 -12 0 -2
37 13 49 7 6 24 7 42 2 23 -6 29 -13 27 -34 -2 -30 17 -36 37 -12 7 8 17 12
23 8 6 -4 7 -1 1 8 -16 27 -12 38 18 44 42 10 48 -4 48 -108 0 -67 3 -87 13
-82 6 4 -11 -15 -39 -42 -28 -26 -70 -55 -95 -64 -31 -11 -45 -22 -47 -37 -2
-15 -10 -22 -27 -22 -14 0 -25 -7 -28 -20 -5 -21 8 -29 15 -8 3 8 11 7 29 -5
13 -10 22 -21 19 -25 -3 -4 98 -8 223 -10 146 -2 227 0 223 6 -3 6 2 8 13 5
13 -3 20 2 24 16 3 13 1 21 -6 20 -26 -3 -37 2 -37 17 0 11 8 15 32 12 19 -2
33 2 35 10 3 6 0 12 -6 12 -6 0 -11 4 -11 10 0 5 6 7 14 4 21 -8 28 -47 11
-60 -19 -14 -19 -24 0 -24 8 0 15 -5 15 -11 0 -5 -4 -8 -8 -5 -4 2 -14 1 -22
-5 -11 -6 -6 -9 18 -9 19 0 32 5 32 13 0 8 3 8 9 -2 8 -13 12 -13 27 0 11 9
15 9 10 2 -4 -8 -2 -13 8 -13 8 0 17 6 19 13 4 10 6 9 6 0 1 -14 62 -18 75 -6
3 4 -4 13 -16 20 -13 7 -17 12 -9 13 8 0 11 6 7 16 -4 9 1 28 9 41 9 13 13 28
10 33 -3 5 -1 11 5 15 20 12 22 -25 2 -50 -18 -23 -19 -27 -4 -59 l16 -35 184
-1 c153 0 183 2 174 13 -22 26 -10 167 14 167 21 0 17 44 -6 65 -15 13 -17 22
-10 36 8 14 6 20 -7 28 -10 6 -14 11 -10 11 5 0 1 10 -7 22 -9 12 -16 33 -16
45 0 13 -4 23 -10 23 -20 0 7 99 49 173 11 20 20 41 20 45 -3 19 3 22 21 12
17 -9 20 -8 20 10 0 11 5 20 10 20 12 0 9 22 -4 31 -11 9 3 51 15 43 5 -3 7
-10 4 -15 -4 -5 1 -9 9 -9 19 0 30 17 16 25 -15 9 -12 25 5 25 7 0 18 -8 24
-17 9 -16 11 -16 30 6 12 13 21 20 21 15 0 -5 7 0 16 11 12 16 16 17 23 6 7
-11 9 -11 13 0 4 11 8 11 21 -3 15 -15 15 -17 0 -30 -14 -11 -16 -11 -9 2 4 8
-2 4 -13 -10 -20 -25 -25 -44 -21 -88 1 -13 -4 -30 -10 -38 -7 -7 -10 -14 -7
-14 3 0 1 -14 -5 -30 -8 -26 -13 -29 -25 -18 -13 10 -15 6 -13 -28 1 -21 1
-42 0 -46 -6 -21 -8 -31 -9 -64 -1 -25 -5 -33 -13 -29 -7 4 -6 0 4 -7 9 -8 16
-25 16 -38 0 -30 6 -63 21 -110 7 -21 7 -38 2 -43 -6 -6 -5 -15 4 -23 7 -8 11
-24 8 -36 -4 -21 -4 -22 10 -5 14 17 15 17 20 -2 2 -11 0 -24 -6 -30 -8 -8 -8
-11 1 -11 7 0 12 5 12 10 0 6 7 10 15 10 11 0 15 -12 15 -49 0 -28 5 -53 11
-57 8 -4 9 4 4 27 l-7 34 24 -22 c30 -29 42 -29 35 -2 -5 18 -2 20 21 14 15
-3 32 -13 38 -21 16 -20 21 -18 26 11 4 20 1 25 -16 25 -19 1 -19 1 -3 11 9 6
14 15 11 21 -7 11 15 30 27 22 10 -6 2 -80 -11 -104 -10 -18 -7 -20 33 -20 52
0 65 11 59 50 -4 28 -22 43 -22 19 0 -5 -4 -8 -9 -4 -12 7 -11 65 1 65 4 0 8
-8 8 -17 0 -13 3 -14 11 -6 9 9 8 18 -5 37 -18 28 -21 40 -7 31 5 -3 12 4 16
14 3 11 11 19 18 17 7 -1 9 -1 5 1 -5 3 -8 11 -8 19 0 12 5 11 26 -3 26 -17
26 -17 20 4 -4 14 -2 23 9 26 9 4 12 13 8 22 -5 14 -8 14 -15 3 -7 -9 -8 -7
-3 7 4 11 10 28 12 38 3 9 9 17 14 17 14 0 10 20 -7 38 -15 14 -15 17 0 27 22
17 20 28 -4 22 -21 -5 -28 7 -9 18 5 4 9 17 7 28 -1 12 1 27 5 33 13 22 -25
24 -54 3 l-29 -20 -9 23 c-5 13 -5 25 -1 28 21 13 9 95 -15 104 -16 6 -48 -21
-40 -34 3 -4 -7 -11 -22 -15 -15 -3 -33 -14 -40 -23 -11 -15 -12 -14 -13 10 0
14 4 28 10 30 15 5 14 85 -2 105 -5 7 -7 17 -3 23 3 6 -3 10 -14 10 -12 0 -21
7 -21 16 0 11 6 14 20 9 18 -6 19 -4 10 19 -7 19 -6 26 3 26 6 0 3 5 -8 11
-11 6 -31 23 -44 38 -14 16 -21 20 -18 9 9 -25 -12 -33 -28 -12 -9 11 -14 14
-15 7 0 -21 -58 -15 -80 7 -11 11 -20 25 -20 31 0 5 -4 7 -10 4 -5 -3 -10 -1
-10 5 0 6 -4 9 -10 5 -5 -3 -7 -12 -4 -19 3 -8 1 -16 -4 -20 -10 -6 -9 30 1
40 4 4 7 18 7 31 0 27 28 42 41 22 8 -13 13 -5 10 14 -2 10 36 -10 44 -23 4
-6 10 -8 13 -6 4 2 32 -13 62 -35 73 -51 258 -168 318 -199 171 -91 334 -201
331 -224 -4 -20 13 -66 21 -61 5 3 22 -9 39 -26 17 -17 39 -32 48 -33 12 -2
18 -14 21 -39 3 -32 0 -39 -22 -49 -30 -13 -35 -33 -8 -26 17 5 17 3 3 -29
-13 -29 -17 -32 -27 -18 -6 8 -17 15 -23 15 -7 0 -11 6 -9 12 4 12 -20 44 -31
42 -9 -2 -30 30 -31 45 0 8 8 20 18 27 12 10 13 13 2 9 -18 -6 -54 67 -47 95
4 16 2 17 -13 7 -10 -6 -23 -22 -29 -35 -11 -23 -31 -22 -31 3 0 7 -7 16 -16
19 -8 3 -13 2 -10 -2 3 -5 -1 -9 -9 -9 -8 0 -12 4 -9 9 6 10 -14 38 -26 38 -4
0 -11 -7 -14 -15 -6 -16 48 -78 58 -68 3 3 8 -2 12 -11 3 -9 13 -16 21 -16 13
0 13 -3 3 -15 -9 -10 -9 -15 -1 -15 6 0 11 -7 11 -15 0 -8 5 -15 11 -15 5 0 7
-5 4 -10 -4 -6 -1 -18 6 -26 6 -8 9 -17 5 -21 -3 -3 1 -14 9 -23 14 -16 13
-19 -8 -33 -20 -13 -24 -23 -23 -65 1 -28 4 -54 8 -57 4 -4 4 2 2 13 -4 12 0
22 11 26 9 3 13 2 10 -3 -7 -12 25 -81 38 -81 5 0 6 -11 3 -25 l-6 -25 166 1
166 0 29 29 29 28 0 522 c0 535 -1 548 -39 577 -12 9 -177 12 -697 13 l-680 0
-1 -77 c0 -43 -3 -95 -6 -117 -16 -103 -120 -252 -231 -333 l-62 -45 38 -38
c21 -21 38 -47 38 -59 0 -14 4 -20 12 -15 7 4 8 3 4 -5 -4 -6 -11 -9 -16 -6
-5 3 -8 -3 -7 -14 1 -11 11 -22 23 -25 20 -5 21 -9 11 -31 -15 -31 -20 -31
-37 0 -7 14 -19 25 -27 25 -17 0 -17 19 1 26 8 3 12 12 9 21 -5 12 -7 12 -15
1 -7 -9 -8 -8 -6 7 3 13 11 19 23 18 20 -2 20 -1 1 13 -11 8 -23 14 -27 14 -4
0 -11 9 -14 21 -6 16 -13 20 -36 17 -23 -4 -29 -1 -29 13 0 10 -11 26 -25 37
-19 16 -22 21 -10 25 8 4 17 2 20 -3 14 -23 35 -10 33 20 -2 30 -12 38 -22 21
-8 -12 -66 -20 -66 -9 0 5 -4 7 -9 3 -5 -3 -13 0 -16 5 -5 8 -13 6 -25 -5 -12
-11 -20 -13 -25 -6 -3 6 -2 11 3 11 5 0 10 11 10 25 0 14 -5 25 -10 25 -5 0
-6 -5 -2 -11 4 -7 1 -10 -7 -7 -15 6 -15 11 -4 41 5 12 2 17 -9 17 -9 0 -16
-6 -16 -14 0 -22 -29 -41 -42 -28 -6 6 -17 8 -24 5 -8 -3 -14 0 -14 7 0 6 -4
9 -9 6 -4 -3 -27 -8 -50 -11 -40 -5 -42 -4 -36 16 6 19 4 21 -18 15 -21 -5
-26 -2 -29 16 -2 18 -11 24 -38 26 -19 2 -43 11 -52 19 -20 17 -24 43 -8 43 6
0 10 -4 10 -10 0 -14 23 -13 43 3 14 10 15 18 6 51 -8 31 -8 41 3 48 10 7 8 8
-5 4 -15 -5 -17 -2 -12 14 12 37 -28 19 -44 -20 -9 -24 -10 -24 -10 -3 -1 12
-5 25 -11 28 -5 3 -10 11 -10 16 0 6 5 7 11 4 6 -4 13 2 16 14 3 12 12 21 19
21 8 0 14 5 14 11 0 6 7 18 16 26 10 10 13 25 9 40 -4 16 -2 22 5 18 6 -3 10
3 10 14 0 21 -3 21 -339 21 l-339 0 -26 -31z m614 -19 c0 -11 -6 -20 -14 -20
-9 0 -12 7 -9 20 3 11 9 20 14 20 5 0 9 -9 9 -20z m47 0 c-1 -12 -5 -16 -10
-11 -5 5 -6 14 -3 20 11 16 15 13 13 -9z m919 -28 c-18 -16 -19 -16 -12 1 3
10 6 24 6 30 0 8 4 7 12 -1 10 -9 8 -16 -6 -30z m-1005 -95 c-13 -13 -26 -3
-16 12 3 6 11 8 17 5 6 -4 6 -10 -1 -17z m1110 -10 c-10 -9 -11 -8 -5 6 3 10
9 15 12 12 3 -3 0 -11 -7 -18z m26 -9 c-3 -8 -6 -5 -6 6 -1 11 2 17 5 13 3 -3
4 -12 1 -19z m-12 -28 c3 -5 1 -10 -4 -10 -6 0 -11 5 -11 10 0 6 2 10 4 10 3
0 8 -4 11 -10z m-1048 -46 c-3 -3 -12 -4 -19 -1 -8 3 -5 6 6 6 11 1 17 -2 13
-5z m-37 -48 c0 -8 -4 -18 -10 -21 -5 -3 -10 3 -10 14 0 12 5 21 10 21 6 0 10
-6 10 -14z m895 -6 c3 -5 1 -10 -4 -10 -6 0 -11 5 -11 10 0 6 2 10 4 10 3 0 8
-4 11 -10z m415 -35 c14 -16 10 -18 -14 -9 -9 3 -16 10 -16 15 0 14 16 11 30
-6z m-745 -285 c3 -5 1 -10 -4 -10 -6 0 -11 5 -11 10 0 6 2 10 4 10 3 0 8 -4
11 -10z m-67 -35 c-2 -1 -25 -5 -53 -8 l-50 -6 40 13 c32 11 75 11 63 1z
m1467 -5 c3 -6 -1 -7 -9 -4 -18 7 -21 14 -7 14 6 0 13 -4 16 -10z m-1645 -40
c-11 -11 -17 -26 -14 -34 6 -15 -24 -65 -39 -66 -4 0 -5 16 -1 37 7 39 39 83
61 83 9 0 6 -7 -7 -20z m1200 11 c0 -6 -4 -13 -10 -16 -5 -3 -10 1 -10 9 0 9
5 16 10 16 6 0 10 -4 10 -9z m514 -7 c11 -28 6 -39 -9 -20 -8 11 -15 23 -15
28 0 14 18 9 24 -8z m36 -25 c0 -27 -17 -23 -22 5 -4 17 -1 23 9 19 7 -3 13
-14 13 -24z m-1473 -1 c6 -13 14 -31 17 -40 3 -10 12 -18 20 -18 9 0 13 -6 10
-13 -10 -27 -31 -13 -43 30 -7 24 -17 43 -22 43 -5 0 -9 5 -9 10 0 18 16 11
27 -12z m1523 -24 c0 -6 -8 -18 -17 -25 -15 -13 -16 -12 -11 8 4 13 2 26 -3
29 -5 3 -9 9 -9 15 0 5 9 4 20 -3 11 -7 20 -18 20 -24z m-1421 -20 c-6 -8 -15
-12 -18 -8 -3 4 0 9 7 11 6 3 9 10 6 15 -4 7 -2 8 5 4 9 -6 9 -11 0 -22z
m-559 -26 c0 -6 -3 -8 -7 -5 -3 4 -17 0 -30 -8 -13 -9 -23 -11 -23 -6 0 5 9
13 20 16 11 3 20 11 20 16 0 6 5 7 10 4 6 -3 10 -11 10 -17z m277 -18 c-3 -11
1 -27 10 -35 9 -10 12 -22 7 -37 -5 -13 -7 -26 -6 -30 3 -13 -26 3 -32 18 -3
8 -1 25 4 39 5 14 6 25 2 25 -4 0 -13 9 -20 20 -11 18 -10 20 14 20 21 0 25
-4 21 -20z m293 0 c0 -11 0 -23 1 -27 0 -4 -4 -9 -10 -11 -5 -2 -9 11 -9 27 1
34 18 44 18 11z m-226 -5 c-4 -9 0 -15 8 -15 14 0 95 -68 87 -73 -43 -24 -46
-25 -57 -6 -7 10 -17 19 -23 19 -5 0 -7 -4 -4 -10 3 -5 -3 -20 -15 -32 -18
-19 -22 -20 -30 -8 -14 22 -12 27 10 33 20 5 28 27 10 27 -6 0 -6 9 0 24 5 13
6 26 3 29 -3 3 -2 10 2 16 9 16 15 13 9 -4z m196 -11 c0 -8 -5 -12 -10 -9 -6
4 -8 11 -5 16 9 14 15 11 15 -7z m22 -57 c6 -33 -5 -80 -20 -85 -7 -2 -13 2
-11 9 3 25 -1 40 -10 35 -10 -6 -32 39 -23 48 3 4 12 -4 19 -16 l13 -23 -1 25
c-2 37 0 40 15 34 8 -3 16 -15 18 -27z m-569 -2 c-3 -8 -14 -15 -24 -15 -18 0
-18 1 -1 18 19 21 34 19 25 -3z m1337 11 c0 -12 -10 -14 -38 -7 -2 1 0 6 3 11
9 15 35 12 35 -4z m60 -16 c0 -5 -8 -10 -17 -10 -15 0 -16 2 -3 10 19 12 20
12 20 0z m-925 -30 c3 -6 -4 -10 -17 -10 -18 0 -20 2 -8 10 19 12 18 12 25 0z
m882 -10 c1 -11 -2 -20 -8 -20 -5 0 -9 9 -9 20 0 11 4 20 8 20 4 0 8 -9 9 -20z
m-958 -69 c1 -48 -5 -35 -12 24 -4 32 -3 43 3 30 5 -11 9 -35 9 -54z m1393 57
c-5 -5 -7 -21 -4 -36 3 -21 9 -28 23 -27 10 1 22 4 25 8 13 13 24 7 24 -12 0
-11 5 -23 12 -27 7 -4 8 -3 4 4 -4 7 -2 12 3 12 6 0 11 -7 11 -15 0 -17 -2
-18 -24 -9 -9 3 -16 14 -16 23 -1 10 -6 6 -16 -12 -15 -27 -11 -54 4 -31 4 7
15 8 27 3 17 -6 17 -8 3 -8 -12 -1 -15 -6 -11 -18 4 -10 2 -14 -5 -9 -6 3 -14
1 -18 -6 -5 -7 -10 -3 -16 13 -8 19 -11 21 -19 9 -8 -12 -10 -9 -6 12 2 15 1
26 -2 24 -3 -2 -11 2 -18 9 -10 11 -10 15 0 18 7 3 4 6 -6 6 -10 1 -16 5 -13
10 3 5 -1 11 -9 15 -8 3 -15 10 -15 17 0 6 7 8 16 5 11 -4 15 -2 11 8 -7 18
-3 22 22 22 12 0 17 -4 13 -8z m-1286 -10 c-5 8 0 12 16 12 19 0 20 -2 8 -10
-13 -9 -13 -12 3 -25 11 -7 26 -11 35 -7 14 5 15 3 5 -9 -16 -19 -63 -23 -63
-5 0 7 -7 19 -15 26 -8 7 -15 17 -15 22 0 6 8 4 17 -3 11 -10 14 -10 9 -1z
m-83 -48 c3 -11 1 -20 -4 -20 -5 0 -9 9 -9 20 0 11 2 20 4 20 2 0 6 -9 9 -20z
m-86 4 c-3 -3 -12 -4 -19 -1 -8 3 -5 6 6 6 11 1 17 -2 13 -5z m123 -15 c0 -6
-4 -7 -10 -4 -5 3 -10 11 -10 16 0 6 5 7 10 4 6 -3 10 -11 10 -16z m153 -14
c-3 -9 -8 -14 -10 -11 -3 3 -2 9 2 15 9 16 15 13 8 -4z m-53 -5 c0 -5 -8 -10
-17 -10 -15 0 -16 2 -3 10 19 12 20 12 20 0z m-32 -40 c-13 -20 -28 -27 -28
-12 0 10 22 32 32 32 5 0 3 -9 -4 -20z m73 -20 c5 0 9 -7 9 -15 0 -8 -6 -15
-14 -15 -15 0 -28 49 -18 65 4 5 8 0 10 -12 2 -13 8 -23 13 -23z m-166 13
c-19 -13 -31 -11 -21 5 3 5 13 9 22 9 15 0 15 -2 -1 -14z m5 -38 c0 -8 -4 -15
-10 -15 -5 0 -7 7 -4 15 4 8 8 15 10 15 2 0 4 -7 4 -15z m-570 -9 c0 -2 -7 -7
-16 -10 -8 -3 -12 -2 -9 4 6 10 25 14 25 6z"/>
<path d="M4300 1762 c-22 -23 -35 -47 -35 -64 -1 -27 18 -38 30 -18 9 14 31
12 48 -5 8 -8 17 -11 21 -8 3 4 17 1 30 -7 42 -22 68 -6 104 62 18 35 32 66
32 69 0 4 -44 7 -97 7 l-98 1 -35 -37z"/>
<path d="M4590 1780 c6 -11 15 -18 20 -15 13 8 0 35 -16 35 -12 0 -12 -4 -4
-20z"/>
<path d="M4064 1766 c-8 -21 3 -36 27 -36 24 0 24 5 -1 30 -17 17 -21 18 -26
6z"/>
<path d="M4150 1770 c0 -6 7 -10 15 -10 8 0 15 2 15 4 0 2 -7 6 -15 10 -8 3
-15 1 -15 -4z"/>
<path d="M4140 1730 c0 -5 5 -10 10 -10 6 0 10 5 10 10 0 6 -4 10 -10 10 -5 0
-10 -4 -10 -10z"/>
<path d="M4526 1725 c-3 -8 -1 -15 4 -15 6 0 10 7 10 15 0 8 -2 15 -4 15 -2 0
-6 -7 -10 -15z"/>
<path d="M4020 1703 c0 -5 14 -9 30 -10 18 -1 28 2 25 7 -7 12 -55 14 -55 3z"/>
<path d="M4058 1673 c-19 -5 -24 -18 -9 -27 4 -3 16 3 26 14 18 20 16 22 -17
13z"/>
<path d="M4740 1671 c0 -5 -8 -11 -17 -13 -11 -3 -6 -6 13 -9 26 -4 30 -2 26
13 -4 18 -22 25 -22 9z"/>
<path d="M4098 1653 c-16 -2 -28 -9 -28 -14 0 -6 4 -8 9 -4 5 3 12 1 16 -5 10
-16 23 -12 35 10 6 11 7 19 3 19 -4 -1 -20 -4 -35 -6z"/>
<path d="M4320 1650 c0 -5 7 -10 16 -10 8 0 12 5 9 10 -3 6 -10 10 -16 10 -5
0 -9 -4 -9 -10z"/>
<path d="M4670 1629 c0 -5 5 -7 10 -4 6 3 10 8 10 11 0 2 -4 4 -10 4 -5 0 -10
-5 -10 -11z"/>
<path d="M4762 1614 c-7 -8 -10 -19 -7 -24 11 -17 20 -11 21 15 1 14 1 25 0
25 0 -1 -7 -7 -14 -16z"/>
<path d="M4630 1611 c0 -5 5 -13 10 -16 6 -3 10 -2 10 4 0 5 -4 13 -10 16 -5
3 -10 2 -10 -4z"/>
<path d="M4722 1605 c-11 -12 -10 -15 3 -15 8 0 15 7 15 15 0 18 -2 18 -18 0z"/>
<path d="M4512 1588 c5 -15 28 -18 29 -3 0 6 -7 12 -17 13 -10 3 -15 -1 -12
-10z"/>
<path d="M4467 1566 c-3 -8 -2 -18 3 -21 13 -8 24 15 12 27 -6 6 -11 4 -15 -6z"/>
<path d="M1130 1514 c0 -34 4 -53 10 -49 6 3 10 28 10 56 0 27 -4 49 -10 49
-5 0 -10 -25 -10 -56z"/>
<path d="M2423 1557 c-4 -8 -16 -16 -25 -20 -11 -4 -18 -17 -18 -32 0 -21 5
-25 30 -25 29 0 30 2 30 45 0 47 -4 54 -17 32z m-3 -53 c0 -9 -5 -14 -12 -12
-18 6 -21 28 -4 28 9 0 16 -7 16 -16z"/>
<path d="M2455 1560 c-3 -5 -1 -10 4 -10 6 0 11 5 11 10 0 6 -2 10 -4 10 -3 0
-8 -4 -11 -10z"/>
<path d="M2680 1555 c0 -8 -7 -15 -15 -15 -8 0 -19 -9 -25 -19 -13 -25 11 -51
40 -44 16 4 20 14 20 49 0 24 -4 44 -10 44 -5 0 -10 -7 -10 -15z m0 -51 c0 -9
-5 -14 -12 -12 -18 6 -21 28 -4 28 9 0 16 -7 16 -16z"/>
<path d="M2760 1556 c0 -8 -10 -16 -22 -18 -28 -4 -36 -37 -14 -54 9 -6 26
-10 36 -7 16 4 20 14 20 49 0 24 -4 44 -10 44 -5 0 -10 -6 -10 -14z m-2 -48
c-6 -18 -28 -21 -28 -4 0 9 7 16 16 16 9 0 14 -5 12 -12z"/>
<path d="M586 1535 c-20 -30 -20 -49 -2 -64 11 -9 20 -10 35 -1 24 13 27 33 7
50 -8 6 -12 18 -9 26 9 23 -14 16 -31 -11z m25 -38 c-1 -12 -15 -9 -19 4 -3 6
1 10 8 8 6 -3 11 -8 11 -12z"/>
<path d="M653 1545 c-3 -9 -2 -19 2 -23 4 -4 10 -1 12 6 3 6 9 12 14 12 16 0
10 -26 -11 -45 -11 -10 -20 -22 -20 -27 0 -11 58 -10 65 2 3 6 -1 10 -10 10
-14 0 -14 3 -1 29 11 21 12 31 3 40 -16 16 -47 14 -54 -4z"/>
<path d="M741 1529 c-15 -43 -14 -49 8 -49 11 0 23 -5 27 -11 12 -20 25 17 15
43 -8 20 -10 21 -16 6 -4 -10 -11 -18 -16 -18 -6 0 -5 8 1 19 12 24 13 41 1
41 -5 0 -14 -14 -20 -31z"/>
<path d="M850 1516 c0 -48 15 -69 28 -39 4 10 14 18 22 18 8 0 18 -8 22 -18
13 -30 28 -9 28 39 0 49 -10 55 -34 22 l-15 -23 -20 23 c-27 31 -31 28 -31
-22z"/>
<path d="M1292 1519 c-22 -50 -20 -64 8 -47 14 9 22 9 33 0 22 -19 27 -4 10
36 -23 58 -31 59 -51 11z"/>
<path d="M2310 1520 c0 -39 1 -40 33 -39 23 1 26 3 10 6 -26 5 -31 23 -8 23
21 0 19 20 -2 21 -14 0 -13 2 5 9 30 13 28 20 -8 20 -28 0 -30 -2 -30 -40z"/>
<path d="M2575 1527 c-8 -20 -15 -38 -15 -40 0 -2 15 -3 34 -3 l35 0 -15 35
c-20 48 -22 49 -39 8z m22 -19 c-3 -8 -6 -5 -6 6 -1 11 2 17 5 13 3 -3 4 -12
1 -19z"/>
<path d="M5156 1547 c3 -10 9 -15 12 -12 3 3 0 11 -7 18 -10 9 -11 8 -5 -6z"/>
<path d="M2489 1545 c-10 -9 3 -64 15 -68 9 -4 12 6 11 31 -1 32 -13 50 -26
37z"/>
<path d="M4295 1540 c-19 -8 -19 -9 3 -9 12 -1 22 4 22 9 0 6 -1 10 -2 9 -2 0
-12 -4 -23 -9z"/>
<path d="M4430 1535 c-8 -9 -8 -15 -2 -15 12 0 26 19 19 26 -2 2 -10 -2 -17
-11z"/>
<path d="M4502 1535 c-1 -8 -2 -26 -3 -40 -1 -13 -5 -22 -10 -20 -4 3 -10 1
-14 -5 -3 -5 3 -10 14 -10 12 0 21 7 21 16 0 9 5 12 13 8 7 -5 6 0 -3 11 -14
17 -13 18 17 13 18 -2 30 -1 27 4 -3 4 -10 8 -16 8 -6 0 -19 7 -28 15 -15 13
-17 13 -18 0z"/>
<path d="M975 1532 c-5 -4 -10 -20 -10 -37 0 -26 4 -30 28 -30 26 -1 28 2 25
34 -3 35 -21 50 -43 33z"/>
<path d="M1040 1490 c0 -27 5 -50 10 -50 6 0 10 7 10 16 0 8 4 13 9 10 15 -9
39 4 44 23 7 29 -11 51 -43 51 -29 0 -30 -1 -30 -50z m50 16 c0 -8 -4 -17 -9
-21 -12 -7 -24 12 -16 25 9 15 25 12 25 -4z"/>
<path d="M1172 1528 c-18 -18 -15 -46 7 -58 30 -16 48 -3 47 33 -1 24 -6 33
-21 35 -11 1 -26 -3 -33 -10z"/>
<path d="M1360 1530 c0 -6 7 -25 16 -42 l17 -32 19 38 c21 41 15 63 -8 32 -12
-17 -14 -17 -20 -3 -7 19 -24 23 -24 7z"/>
<path d="M1441 1526 c-15 -18 -7 -52 14 -60 27 -10 42 4 41 37 -1 24 -6 33
-22 35 -11 2 -26 -4 -33 -12z"/>
<path d="M2457 1533 c-11 -10 -8 -53 3 -53 6 0 10 14 10 30 0 31 -2 35 -13 23z"/>
<path d="M2790 1510 c0 -17 5 -30 10 -30 6 0 10 9 10 19 0 11 5 23 10 26 6 3
10 -3 10 -13 0 -26 23 -44 46 -35 17 6 16 8 -6 14 -25 7 -25 7 -2 8 17 1 22 6
20 19 -2 13 -15 18 -51 19 -46 2 -47 2 -47 -27z"/>
<path d="M2904 1528 c-4 -6 2 -18 12 -26 16 -13 17 -14 2 -9 -19 7 -25 -8 -8
-18 15 -10 43 16 31 28 -5 5 -7 16 -4 23 6 17 -23 19 -33 2z"/>
<path d="M2959 1538 c-1 -2 -2 -15 -3 -30 -2 -27 17 -44 35 -32 13 8 11 32 -3
37 -10 4 -10 6 0 6 20 2 13 21 -8 21 -11 0 -21 -1 -21 -2z"/>
<path d="M4385 1520 c-3 -5 -2 -10 4 -10 5 0 13 5 16 10 3 6 2 10 -4 10 -5 0
-13 -4 -16 -10z"/>
<path d="M4580 1500 c0 -5 5 -10 10 -10 6 0 10 5 10 10 0 6 -4 10 -10 10 -5 0
-10 -4 -10 -10z"/>
<path d="M4345 1490 c3 -5 14 -10 23 -10 15 0 15 2 2 10 -20 13 -33 13 -25 0z"/>
<path d="M4625 1480 c-3 -5 -1 -10 4 -10 6 0 11 5 11 10 0 6 -2 10 -4 10 -3 0
-8 -4 -11 -10z"/>
<path d="M4095 1451 c-3 -5 -1 -12 5 -16 5 -3 10 1 10 9 0 18 -6 21 -15 7z"/>
<path d="M4675 1447 c-17 -13 -17 -14 4 -20 11 -3 19 -1 15 4 -3 5 0 9 5 9 6
0 11 5 11 10 0 14 -13 13 -35 -3z"/>
<path d="M4157 1439 c-21 -12 -15 -26 10 -24 18 1 23 6 23 25 0 13 -10 12 -33
-1z"/>
<path d="M4230 1442 c0 -14 11 -21 26 -15 8 3 11 9 8 14 -7 11 -34 12 -34 1z"/>
<path d="M4517 1428 c-4 -12 -4 -25 -1 -28 8 -7 34 31 28 41 -9 16 -22 10 -27
-13z"/>
<path d="M4459 1413 c-12 -15 -12 -16 4 -10 15 6 17 3 12 -14 -5 -14 -3 -19 4
-15 11 7 11 56 0 56 -4 0 -13 -8 -20 -17z"/>
<path d="M4574 1408 c-10 -13 -26 -23 -34 -21 -8 2 -5 -2 8 -9 15 -7 26 -8 30
-2 4 5 18 15 32 21 17 8 20 12 8 12 -9 1 -18 6 -20 13 -2 6 -12 1 -24 -14z"/>
<path d="M4418 1413 c7 -3 16 -2 19 1 4 3 -2 6 -13 5 -11 0 -14 -3 -6 -6z"/>
<path d="M4637 1389 c-10 -11 -15 -25 -11 -31 4 -7 13 0 21 16 18 34 13 42
-10 15z"/>
<path d="M5370 1405 c0 -2 10 -10 23 -16 20 -11 21 -11 8 4 -13 16 -31 23 -31
12z"/>
<path d="M4120 1391 c0 -6 5 -13 10 -16 6 -3 10 1 10 9 0 9 -4 16 -10 16 -5 0
-10 -4 -10 -9z"/>
<path d="M5330 1391 c0 -17 21 -24 33 -11 9 10 9 11 0 6 -7 -4 -13 -2 -13 3 0
6 -4 11 -10 11 -5 0 -10 -4 -10 -9z"/>
<path d="M4384 1366 c-10 -8 -16 -17 -13 -20 3 -4 17 2 30 13 27 23 13 28 -17
7z"/>
<path d="M5438 1303 c7 -3 16 -2 19 1 4 3 -2 6 -13 5 -11 0 -14 -3 -6 -6z"/>
<path d="M5540 1280 c0 -6 7 -10 15 -10 8 0 15 2 15 4 0 2 -7 6 -15 10 -8 3
-15 1 -15 -4z"/>
<path d="M5440 1270 c20 -13 33 -13 25 0 -3 6 -14 10 -23 10 -15 0 -15 -2 -2
-10z"/>
<path d="M5616 1235 c-17 -18 -21 -35 -7 -35 5 0 11 -10 14 -22 5 -18 8 -19
21 -9 9 8 13 18 10 23 -4 6 -10 5 -16 -3 -7 -11 -8 -9 -4 4 3 10 6 20 6 23 0
2 8 1 18 -2 13 -5 14 -4 3 4 -7 5 -17 15 -21 22 -5 8 -11 7 -24 -5z"/>
<path d="M654 1214 c-42 -41 -15 -104 45 -104 48 0 78 41 61 84 -18 49 -68 59
-106 20z m89 -15 c5 -9 7 -28 3 -42 -7 -30 -49 -46 -75 -30 -20 13 -26 60 -10
79 16 19 69 14 82 -7z"/>
<path d="M692 1188 c2 -14 11 -24 23 -25 11 -2 14 0 8 3 -7 3 -13 14 -13 25 0
10 -5 19 -11 19 -6 0 -9 -10 -7 -22z"/>
<path d="M1250 1205 c0 -8 5 -15 10 -15 6 0 10 7 10 15 0 8 -4 15 -10 15 -5 0
-10 -7 -10 -15z"/>
<path d="M1018 1197 c-36 -29 -25 -87 16 -87 25 0 36 16 36 55 0 30 -31 49
-52 32z m30 -39 c-5 -32 -28 -35 -28 -4 0 17 5 26 16 26 10 0 14 -7 12 -22z"/>
<path d="M2390 1164 c0 -27 4 -43 10 -39 6 3 10 16 10 28 0 24 16 13 23 -18 3
-13 5 -9 6 13 1 22 -4 32 -14 32 -8 0 -15 7 -15 15 0 8 -4 15 -10 15 -5 0 -10
-21 -10 -46z"/>
<path d="M2810 1199 c0 -5 5 -7 10 -4 6 3 10 8 10 11 0 2 -4 4 -10 4 -5 0 -10
-5 -10 -11z"/>
<path d="M920 1190 c0 -5 5 -10 11 -10 6 0 9 -7 5 -15 -3 -9 0 -15 9 -15 8 0
15 -5 15 -11 0 -5 -8 -9 -18 -7 -11 2 -20 -1 -20 -7 -1 -5 10 -10 26 -10 25 0
27 3 27 42 0 40 -2 43 -27 43 -16 0 -28 -4 -28 -10z"/>
<path d="M2312 1188 c-27 -27 -6 -68 34 -68 13 0 26 5 29 11 4 6 -4 9 -22 7
-24 -3 -28 0 -28 22 0 21 4 25 28 23 15 -1 25 2 22 8 -9 13 -49 11 -63 -3z"/>
<path d="M2762 1187 c-14 -19 1 -62 23 -64 11 -2 14 0 8 3 -15 7 -17 41 -4 46
5 2 3 8 -4 15 -10 10 -15 10 -23 0z"/>
<path d="M1126 1173 c-13 -13 -6 -63 9 -63 9 0 15 9 15 25 0 14 5 25 10 25 6
0 10 -11 10 -25 0 -14 5 -25 10 -25 6 0 10 11 10 25 0 14 5 25 10 25 6 0 10
-11 10 -25 0 -14 5 -25 10 -25 6 0 10 15 10 34 0 34 0 34 -49 34 -27 1 -52 -2
-55 -5z"/>
<path d="M1250 1145 c0 -19 5 -35 10 -35 6 0 10 16 10 35 0 19 -4 35 -10 35
-5 0 -10 -16 -10 -35z"/>
<path d="M1290 1146 c0 -20 5 -36 10 -36 6 0 10 11 10 25 0 14 5 25 10 25 6 0
10 -11 10 -25 0 -14 5 -25 11 -25 6 0 9 14 7 33 -2 27 -8 33 -30 35 -26 3 -28
1 -28 -32z"/>
<path d="M1370 1161 c0 -11 6 -22 13 -24 10 -4 10 -6 0 -6 -24 -2 -13 -21 12
-21 27 0 33 18 13 38 -9 9 -9 12 0 12 7 0 12 5 12 10 0 6 -11 10 -25 10 -18 0
-25 -5 -25 -19z"/>
<path d="M2464 1166 c-10 -26 4 -48 28 -44 17 2 23 10 23 28 0 18 -6 26 -23
28 -13 2 -25 -3 -28 -12z m36 -16 c0 -21 -15 -27 -25 -10 -7 12 2 30 16 30 5
0 9 -9 9 -20z"/>
<path d="M2534 1166 c-10 -26 4 -48 28 -44 17 2 23 10 23 28 0 18 -6 26 -23
28 -13 2 -25 -3 -28 -12z m42 -7 c3 -6 1 -16 -5 -22 -9 -9 -14 -8 -21 3 -9 15
-4 30 10 30 5 0 12 -5 16 -11z"/>
<path d="M2607 1173 c-4 -3 1 -15 10 -25 16 -18 16 -18 0 -12 -10 3 -17 1 -17
-5 0 -15 37 -14 46 1 4 6 -1 17 -10 24 -16 12 -16 13 1 17 15 4 15 5 -3 6 -11
0 -24 -2 -27 -6z"/>
<path d="M2664 1165 c-9 -23 3 -45 25 -45 19 0 31 25 24 48 -6 17 -42 15 -49
-3z"/>
<path d="M2810 1150 c0 -16 5 -30 10 -30 6 0 10 14 10 30 0 17 -4 30 -10 30
-5 0 -10 -13 -10 -30z"/>
<path d="M2840 1150 c0 -16 5 -30 10 -30 6 0 10 12 10 26 0 14 4 23 10 19 6
-3 10 -15 10 -26 0 -30 20 -22 21 9 1 20 2 22 6 7 9 -36 23 -41 23 -7 0 31 -1
32 -45 32 -43 0 -45 -1 -45 -30z"/>
<path d="M2946 1165 c-9 -24 4 -45 29 -45 23 0 36 23 28 48 -6 17 -50 15 -57
-3z"/>
<path d="M4950 1140 c0 -5 5 -10 11 -10 5 0 7 5 4 10 -3 6 -8 10 -11 10 -2 0
-4 -4 -4 -10z"/>
<path d="M5646 1137 c3 -10 9 -15 12 -12 3 3 0 11 -7 18 -10 9 -11 8 -5 -6z"/>
<path d="M5755 1129 c-4 -6 -5 -12 -2 -15 2 -3 7 2 10 11 7 17 1 20 -8 4z"/>
<path d="M3819 963 c0 -16 -3 -22 -6 -15 -9 22 -23 12 -23 -17 0 -44 49 -52
51 -8 0 22 0 22 9 0 6 -16 18 -23 35 -23 21 0 25 5 25 29 0 31 -26 49 -44 31
-16 -16 -26 -12 -26 10 0 31 -20 24 -21 -7z"/>
<path d="M5910 976 c0 -1 11 -12 24 -23 19 -17 26 -18 30 -8 3 8 -6 17 -25 24
-16 5 -29 9 -29 7z"/>
<path d="M3927 963 c-3 -5 -5 -21 -5 -36 0 -23 4 -28 22 -25 15 2 21 10 21 28
0 31 -26 53 -38 33z"/>
<path d="M5555 960 c-3 -5 1 -10 9 -10 9 0 16 5 16 10 0 6 -4 10 -9 10 -6 0
-13 -4 -16 -10z"/>
<path d="M5722 820 c7 -11 16 -20 20 -20 5 0 3 9 -4 20 -7 11 -16 20 -20 20
-5 0 -3 -9 4 -20z"/>
<path d="M3758 783 c12 -2 22 -9 22 -14 0 -6 5 -7 10 -4 21 13 9 25 -22 24
-24 -1 -27 -3 -10 -6z"/>
<path d="M3838 783 c6 -2 18 -2 25 0 6 3 1 5 -13 5 -14 0 -19 -2 -12 -5z"/>
<path d="M5740 700 c0 -5 5 -10 10 -10 6 0 10 5 10 10 0 6 -4 10 -10 10 -5 0
-10 -4 -10 -10z"/>
<path d="M5026 664 c-9 -23 -8 -24 14 -24 11 0 20 2 20 4 0 12 -13 36 -20 36
-4 0 -11 -7 -14 -16z"/>
<path d="M305 540 c-3 -5 -1 -10 4 -10 6 0 11 5 11 10 0 6 -2 10 -4 10 -3 0
-8 -4 -11 -10z"/>
<path d="M338 543 c6 -2 18 -2 25 0 6 3 1 5 -13 5 -14 0 -19 -2 -12 -5z"/>
<path d="M3612 480 c0 -36 2 -47 7 -31 9 34 31 39 31 7 0 -14 5 -26 11 -26 6
0 9 14 7 33 -2 24 -8 33 -25 35 -12 2 -24 11 -26 20 -3 9 -5 -8 -5 -38z"/>
<path d="M4160 480 c0 -27 5 -50 10 -50 6 0 10 23 10 50 0 28 -4 50 -10 50 -5
0 -10 -22 -10 -50z"/>
<path d="M380 516 c0 -2 7 -7 16 -10 8 -3 12 -2 9 4 -6 10 -25 14 -25 6z"/>
<path d="M3350 477 c0 -26 5 -47 10 -47 6 0 10 10 10 22 l0 21 23 -21 c13 -12
26 -22 30 -22 4 0 7 20 7 45 0 25 -4 45 -10 45 -5 0 -10 -12 -10 -27 l0 -27
-30 29 -30 29 0 -47z"/>
<path d="M3690 499 c0 -11 5 -17 10 -14 6 3 10 13 10 21 0 8 -4 14 -10 14 -5
0 -10 -9 -10 -21z"/>
<path d="M3830 476 c0 -45 1 -46 30 -46 35 0 43 13 32 55 -6 23 -15 31 -35 33
-26 3 -27 1 -27 -42z m40 14 c0 -5 -4 -10 -10 -10 -5 0 -10 5 -10 10 0 6 5 10
10 10 6 0 10 -4 10 -10z m10 -35 c0 -8 -7 -15 -15 -15 -8 0 -15 7 -15 15 0 8
7 15 15 15 8 0 15 -7 15 -15z"/>
<path d="M360 500 c0 -5 5 -10 11 -10 5 0 7 5 4 10 -3 6 -8 10 -11 10 -2 0 -4
-4 -4 -10z"/>
<path d="M440 510 c-10 -25 -6 -59 6 -64 9 -3 14 1 13 12 0 18 -16 60 -19 52z"/>
<path d="M305 490 c3 -6 -1 -7 -9 -4 -11 4 -16 0 -16 -15 0 -12 5 -21 11 -21
8 0 7 -5 -1 -15 -14 -17 -8 -31 9 -20 6 3 11 17 11 30 0 13 5 25 12 27 13 5 2
28 -13 28 -6 0 -7 -4 -4 -10z"/>
<path d="M3456 487 c-28 -21 -12 -59 22 -55 41 5 42 67 1 68 -3 0 -13 -6 -23
-13z m39 -27 c0 -22 -29 -18 -33 3 -3 14 1 18 15 15 10 -2 18 -10 18 -18z"/>
<path d="M3540 490 c-12 -8 -10 -10 10 -10 25 -1 25 -1 3 -10 -34 -14 -29 -40
7 -40 25 0 30 4 30 23 0 21 -16 47 -29 47 -4 0 -13 -5 -21 -10z"/>
<path d="M3733 485 c-3 -9 3 -23 13 -31 16 -13 17 -15 2 -10 -10 3 -20 1 -23
-4 -4 -6 5 -10 19 -10 34 0 41 16 14 34 -19 14 -20 16 -5 16 10 0 15 5 12 10
-9 15 -25 12 -32 -5z"/>
<path d="M3925 491 c-3 -6 2 -11 12 -12 15 0 14 -2 -5 -11 -29 -14 -23 -32 12
-36 26 -3 27 -1 24 30 -3 33 -29 51 -43 29z"/>
<path d="M4000 485 c-18 -21 -8 -48 20 -56 l25 -7 -24 -1 c-18 -1 -22 -4 -14
-12 6 -6 20 -8 32 -4 17 5 21 14 21 48 0 38 -3 43 -24 45 -13 1 -29 -5 -36
-13z m38 -22 c-4 -22 -22 -20 -26 1 -2 10 3 16 13 16 10 0 15 -7 13 -17z"/>
<path d="M4090 485 c-19 -23 -8 -50 23 -53 15 -2 27 1 27 6 0 6 -9 8 -20 5
-11 -3 -20 0 -20 6 0 6 11 11 25 11 23 0 24 2 15 20 -13 24 -33 26 -50 5z m37
-11 c-3 -3 -12 -4 -19 -1 -8 3 -5 6 6 6 11 1 17 -2 13 -5z"/>
<path d="M4203 485 c-3 -9 3 -23 13 -31 17 -14 17 -15 2 -10 -10 3 -18 1 -18
-4 0 -14 37 -12 46 2 4 6 -1 17 -11 25 -11 7 -13 13 -7 13 7 0 12 5 12 10 0
16 -30 12 -37 -5z"/>
<path d="M390 475 c0 -18 26 -20 36 -3 4 7 3 8 -4 4 -7 -4 -12 -2 -12 3 0 6
-4 11 -10 11 -5 0 -10 -7 -10 -15z"/>
<path d="M350 470 c19 -13 30 -13 30 0 0 6 -10 10 -22 10 -19 0 -20 -2 -8 -10z"/>
<path d="M1172 430 c0 -36 2 -47 7 -31 9 34 31 39 31 7 0 -14 5 -26 11 -26 6
0 9 14 7 33 -2 24 -8 33 -25 35 -12 2 -24 11 -26 20 -3 9 -5 -8 -5 -38z"/>
<path d="M1250 469 c0 -5 5 -7 10 -4 6 3 10 8 10 11 0 2 -4 4 -10 4 -5 0 -10
-5 -10 -11z"/>
<path d="M1360 430 c0 -27 5 -50 10 -50 6 0 10 7 10 17 0 15 1 15 18 0 23 -21
39 -22 22 -2 -6 8 -9 23 -5 35 8 25 -3 26 -21 3 -12 -16 -13 -15 -14 15 0 17
-4 32 -10 32 -5 0 -10 -22 -10 -50z"/>
<path d="M1920 430 c0 -27 5 -50 10 -50 6 0 10 11 10 25 0 14 5 25 10 25 6 0
10 -11 10 -25 0 -14 5 -25 10 -25 6 0 10 14 10 31 0 22 -5 32 -20 36 -11 3
-20 12 -20 19 0 8 -4 14 -10 14 -5 0 -10 -22 -10 -50z"/>
<path d="M1069 449 c-8 -16 -8 -28 0 -46 9 -20 17 -24 44 -21 17 2 31 8 29 13
-2 6 -14 9 -27 7 -31 -4 -44 23 -22 45 13 13 19 14 31 4 14 -12 32 0 19 13
-15 15 -63 5 -74 -15z"/>
<path d="M1692 458 c-16 -16 -15 -53 2 -68 18 -15 58 -10 64 8 3 11 0 12 -16
3 -16 -9 -24 -8 -36 5 -9 8 -16 17 -16 19 0 2 7 11 16 19 12 13 20 14 36 5 16
-9 19 -8 16 3 -6 17 -50 22 -66 6z"/>
<path d="M1250 415 c0 -19 5 -35 10 -35 6 0 10 16 10 35 0 19 -4 35 -10 35 -5
0 -10 -16 -10 -35z"/>
<path d="M1289 434 c-24 -29 27 -72 54 -45 8 8 4 11 -16 11 -17 0 -27 5 -27
15 0 9 10 15 26 15 14 0 23 4 19 10 -9 15 -41 12 -56 -6z"/>
<path d="M1444 436 c-11 -29 1 -51 29 -54 16 -2 27 2 27 8 0 7 -7 10 -15 7 -8
-4 -17 -2 -20 3 -4 6 3 10 15 10 15 0 20 5 18 18 -4 22 -46 29 -54 8z"/>
<path d="M1520 416 c0 -20 5 -36 10 -36 6 0 10 11 10 25 0 14 5 25 10 25 6 0
10 -11 10 -25 0 -14 5 -25 11 -25 6 0 9 14 7 33 -2 27 -8 33 -30 35 -26 3 -28
1 -28 -32z"/>
<path d="M1785 440 c-3 -6 4 -10 17 -10 l23 0 -24 -13 c-34 -17 -31 -31 7 -35
28 -3 32 0 32 20 0 38 -39 64 -55 38z"/>
<path d="M1854 438 c-4 -6 0 -16 9 -23 22 -16 22 -26 0 -18 -11 4 -14 3 -9 -5
4 -7 16 -12 27 -12 24 0 26 37 2 43 -17 4 -17 5 0 6 9 0 17 6 17 11 0 14 -37
13 -46 -2z"/>
<path d="M2012 441 c-8 -4 -12 -19 -10 -32 2 -18 10 -25 31 -27 16 -2 27 2 27
8 0 7 -7 10 -15 7 -8 -4 -17 -2 -20 3 -4 6 3 10 15 10 15 0 20 5 18 17 -4 20
-27 27 -46 14z m35 -17 c-3 -3 -12 -4 -19 -1 -8 3 -5 6 6 6 11 1 17 -2 13 -5z"/>
<path d="M2074 441 c3 -4 10 -21 16 -37 11 -28 12 -29 26 -9 15 20 15 20 26 1
10 -18 11 -18 24 5 19 35 18 60 -2 34 -15 -20 -15 -20 -26 -1 -10 18 -11 18
-23 -4 l-13 -23 -6 21 c-4 12 -12 22 -17 22 -6 0 -8 -4 -5 -9z"/>
<path d="M345 420 c3 -5 11 -10 16 -10 6 0 7 5 4 10 -3 6 -11 10 -16 10 -6 0
-7 -4 -4 -10z"/>
<path d="M282 383 c5 -25 56 -42 68 -23 12 19 -14 40 -48 40 -17 0 -23 -5 -20
-17z"/>
<path d="M1600 374 c0 -14 4 -23 10 -19 6 3 10 15 10 26 0 10 -4 19 -10 19 -5
0 -10 -12 -10 -26z"/>
<path d="M2190 376 c0 -31 6 -34 13 -6 3 11 1 23 -4 26 -5 3 -9 -6 -9 -20z"/>
<path d="M360 360 c0 -13 11 -13 30 0 12 8 11 10 -7 10 -13 0 -23 -4 -23 -10z"/>
<path d="M450 320 c0 -11 7 -20 15 -20 13 0 14 4 5 20 -6 11 -13 20 -15 20 -3
0 -5 -9 -5 -20z"/>
<path d="M856 311 c-15 -24 27 -62 47 -42 14 14 -3 33 -25 28 -14 -4 -18 -2
-14 9 6 16 0 19 -8 5z"/>
<path d="M297 303 c-13 -12 -7 -22 12 -20 11 0 17 6 14 14 -6 14 -16 17 -26 6z"/>
<path d="M426 302 c-3 -6 -1 -14 5 -17 14 -9 20 -2 10 14 -6 8 -11 9 -15 3z"/>
<path d="M2580 295 c-10 -13 -10 -19 4 -33 21 -24 20 -33 -1 -25 -16 6 -16 5
-4 -10 13 -16 14 -16 27 0 12 16 10 20 -7 36 -19 15 -18 21 3 18 4 0 5 6 2 14
-8 19 -9 19 -24 0z"/>
<path d="M1270 285 c0 -8 -6 -15 -14 -15 -21 0 -38 -27 -31 -50 4 -14 15 -20
36 -20 28 0 29 1 29 50 0 28 -4 50 -10 50 -5 0 -10 -7 -10 -15z m-2 -52 c-4
-22 -22 -20 -26 1 -2 10 3 16 13 16 10 0 15 -7 13 -17z"/>
<path d="M1790 286 c0 -8 -12 -17 -26 -20 -20 -5 -25 -12 -22 -34 2 -22 9 -28
36 -30 l32 -3 0 50 c0 28 -4 51 -10 51 -5 0 -10 -6 -10 -14z m-2 -53 c-4 -22
-22 -20 -26 1 -2 10 3 16 13 16 10 0 15 -7 13 -17z"/>
<path d="M2110 250 c0 -27 5 -50 10 -50 6 0 10 23 10 50 0 28 -4 50 -10 50 -5
0 -10 -22 -10 -50z"/>
<path d="M2270 287 c0 -7 -10 -17 -22 -22 -15 -7 -23 -19 -23 -35 0 -21 5 -26
33 -28 l32 -3 0 50 c0 28 -4 51 -10 51 -5 0 -10 -6 -10 -13z m-2 -54 c-4 -22
-22 -20 -26 1 -2 10 3 16 13 16 10 0 15 -7 13 -17z"/>
<path d="M2635 290 c-3 -5 -2 -10 4 -10 5 0 12 -15 14 -32 3 -29 4 -27 5 10 2
39 -9 55 -23 32z"/>
<path d="M2680 280 c0 -14 7 -20 21 -20 12 0 19 -5 16 -12 -2 -7 -12 -12 -22
-11 -12 1 -14 -2 -7 -9 14 -14 42 -3 42 17 0 9 -10 20 -22 24 l-23 9 25 10 25
11 -27 0 c-22 1 -28 -4 -28 -19z"/>
<path d="M2784 286 c-11 -28 0 -61 20 -61 27 0 44 30 30 53 -15 22 -43 27 -50
8z m40 -11 c7 -18 -2 -45 -15 -45 -13 0 -22 27 -15 45 3 8 10 15 15 15 5 0 11
-7 15 -15z"/>
<path d="M2862 288 c-27 -27 0 -77 34 -64 10 4 14 16 12 38 -3 35 -25 47 -46
26z m33 -28 c0 -13 -6 -25 -12 -27 -9 -3 -13 6 -13 27 0 21 4 30 13 28 6 -3
12 -15 12 -28z"/>
<path d="M1360 253 c-8 -21 -16 -40 -18 -43 -1 -3 16 -5 38 -5 32 0 39 3 34
15 -3 8 -11 27 -16 43 -13 36 -21 34 -38 -10z m30 -13 c0 -5 -5 -10 -11 -10
-5 0 -7 5 -4 10 3 6 8 10 11 10 2 0 4 -4 4 -10z"/>
<path d="M1956 275 c-3 -9 4 -21 19 -31 29 -19 25 -35 -7 -26 -14 3 -19 2 -14
-6 9 -14 52 -16 60 -3 10 15 -4 40 -25 46 -11 4 -17 10 -14 15 3 5 12 7 20 3
8 -3 15 0 15 6 0 17 -47 13 -54 -4z"/>
<path d="M2965 250 c0 -18 4 -25 9 -20 6 6 14 6 20 1 7 -6 11 0 11 20 0 16 -3
29 -7 29 -5 0 -8 -5 -8 -11 0 -8 -4 -8 -12 -1 -10 8 -13 3 -13 -18z"/>
<path d="M1075 261 c-3 -6 2 -11 12 -12 14 0 13 -2 -5 -10 -30 -12 -23 -33 12
-37 26 -3 27 -1 24 30 -3 33 -29 51 -43 29z m25 -41 c0 -5 -5 -10 -11 -10 -5
0 -7 5 -4 10 3 6 8 10 11 10 2 0 4 -4 4 -10z"/>
<path d="M1140 236 c0 -20 5 -36 10 -36 6 0 10 11 10 25 0 34 27 32 33 -2 4
-21 4 -19 3 7 -1 30 -5 35 -28 38 -26 3 -28 1 -28 -32z"/>
<path d="M1436 238 c9 -18 18 -35 20 -36 3 -4 34 53 34 63 0 15 -20 2 -26 -17
l-7 -23 -8 23 c-5 12 -13 22 -19 22 -6 0 -4 -13 6 -32z"/>
<path d="M1509 254 c-17 -21 0 -49 32 -49 18 0 25 6 27 24 6 38 -34 55 -59 25z
m39 -21 c-4 -22 -22 -20 -26 1 -2 10 3 16 13 16 10 0 15 -7 13 -17z"/>
<path d="M1603 263 c-18 -7 -16 -52 2 -59 8 -4 23 -3 33 1 15 7 14 9 -6 14
-29 7 -30 25 -2 29 11 2 18 8 15 13 -7 10 -22 11 -42 2z"/>
<path d="M1675 261 c-3 -6 2 -11 12 -12 14 0 13 -2 -5 -10 -30 -12 -23 -33 12
-37 26 -3 27 -1 24 30 -3 33 -29 51 -43 29z m25 -41 c0 -5 -5 -10 -11 -10 -5
0 -7 5 -4 10 3 6 8 10 11 10 2 0 4 -4 4 -10z"/>
<path d="M1842 261 c-8 -4 -12 -19 -10 -32 4 -33 53 -40 63 -9 11 36 -22 61
-53 41z m36 -28 c-4 -22 -22 -20 -26 1 -2 10 3 16 13 16 10 0 15 -7 13 -17z"/>
<path d="M2035 261 c-3 -7 3 -11 17 -12 l23 0 -22 -9 c-35 -14 -29 -40 8 -40
28 0 30 2 27 33 -2 24 -8 33 -25 35 -11 2 -24 -2 -28 -7z m35 -41 c0 -5 -4
-10 -10 -10 -5 0 -10 5 -10 10 0 6 5 10 10 10 6 0 10 -4 10 -10z"/>
<path d="M2155 261 c-3 -7 3 -11 17 -12 21 -1 21 -1 -5 -11 -34 -12 -30 -32 7
-36 26 -3 27 -1 24 30 -3 33 -29 51 -43 29z m25 -41 c0 -5 -4 -10 -10 -10 -5
0 -10 5 -10 10 0 6 5 10 10 10 6 0 10 -4 10 -10z"/>
<path d="M834 215 c-18 -14 -17 -15 7 -6 30 11 72 4 63 -10 -3 -5 0 -9 7 -9 6
0 18 -8 25 -17 12 -16 13 -15 14 13 0 20 -6 34 -16 38 -28 11 -80 6 -100 -9z"/>
<path d="M280 193 c0 -5 9 -14 20 -21 26 -16 25 -46 -2 -64 -19 -12 -20 -18
-11 -30 10 -11 10 -17 0 -27 -7 -9 0 -7 20 3 33 17 50 58 38 96 -6 20 -65 58
-65 43z"/>
<path d="M771 127 c0 -16 10 -48 23 -72 14 -24 22 -46 19 -49 -4 -3 9 -6 27
-6 l33 0 -25 20 c-22 17 -47 87 -27 74 4 -2 10 4 12 13 3 10 5 3 6 -14 1 -22
6 -33 15 -33 8 0 18 -4 21 -10 3 -6 -1 -7 -9 -4 -11 4 -16 0 -16 -10 0 -11 9
-16 31 -16 49 0 69 16 69 55 0 31 -2 33 -26 29 -14 -3 -33 1 -41 7 -11 10 -13
10 -11 -1 2 -7 -3 -15 -9 -17 -9 -3 -13 6 -13 26 0 36 -3 38 -30 11 -26 -26
-38 -25 -43 3 -4 18 -4 18 -6 -6z m155 -56 c-4 -5 0 -12 6 -14 7 -3 3 -6 -9
-6 -14 -1 -23 5 -23 14 0 8 7 15 16 15 8 0 13 -4 10 -9z"/>
<path d="M1143 80 c0 -25 2 -35 4 -22 5 27 23 29 23 2 0 -11 5 -20 10 -20 19
0 10 42 -9 47 -11 3 -22 12 -24 22 -3 9 -5 -4 -4 -29z"/>
<path d="M1383 75 c0 -27 2 -38 4 -22 2 15 2 37 0 50 -2 12 -4 0 -4 -28z"/>
<path d="M1777 113 c-11 -10 -8 -73 3 -73 6 0 10 8 11 18 0 9 2 27 3 40 3 22
-4 28 -17 15z"/>
<path d="M1073 103 c11 -3 18 -15 18 -36 l2 -32 4 30 c3 16 10 33 16 37 7 4
-4 7 -23 7 -19 -1 -27 -3 -17 -6z"/>
<path d="M1311 68 c1 -24 4 -33 6 -20 3 14 12 22 24 22 12 0 19 7 19 20 0 15
-7 20 -25 20 -23 0 -25 -3 -24 -42z m39 22 c0 -5 -7 -10 -15 -10 -8 0 -15 5
-15 10 0 6 7 10 15 10 8 0 15 -4 15 -10z"/>
<path d="M1537 98 c-5 -15 12 -68 21 -68 6 0 7 33 3 73 -1 12 -19 8 -24 -5z"/>
<path d="M1627 103 c-14 -13 -6 -53 12 -63 21 -11 51 -4 51 12 0 6 -7 5 -16
-2 -12 -11 -18 -10 -31 3 -23 22 -9 51 22 45 13 -3 22 -1 19 3 -6 11 -48 12
-57 2z"/>
<path d="M1204 75 c-4 -9 0 -24 10 -33 13 -14 18 -14 28 -3 9 9 9 12 1 7 -6
-3 -14 -2 -18 4 -3 6 3 10 15 10 28 0 21 24 -8 28 -14 2 -25 -3 -28 -13z"/>
<path d="M1425 81 c19 -8 19 -8 -2 -15 -24 -8 -30 -21 -14 -30 18 -11 41 6 41
30 0 18 -5 24 -22 23 -22 0 -22 -1 -3 -8z m15 -25 c0 -3 -4 -8 -10 -11 -5 -3
-10 -1 -10 4 0 6 5 11 10 11 6 0 10 -2 10 -4z"/>
<path d="M1471 58 c1 -30 2 -30 8 -9 9 35 29 37 34 4 4 -27 4 -27 6 5 1 28 -2
32 -24 32 -22 0 -25 -4 -24 -32z"/>
<path d="M1725 81 c19 -8 19 -8 -2 -15 -24 -8 -30 -21 -14 -30 18 -11 41 6 41
30 0 18 -5 24 -22 23 -22 0 -22 -1 -3 -8z m15 -25 c0 -3 -4 -8 -10 -11 -5 -3
-10 -1 -10 4 0 6 5 11 10 11 6 0 10 -2 10 -4z"/>
<path d="M1817 83 c-4 -3 -7 -14 -7 -24 0 -21 29 -34 44 -19 8 8 6 9 -5 5 -10
-4 -20 -2 -24 4 -3 7 2 11 14 11 12 0 21 7 21 15 0 15 -31 21 -43 8z m30 -9
c-3 -3 -12 -4 -19 -1 -8 3 -5 6 6 6 11 1 17 -2 13 -5z"/>
<path d="M716 51 c-3 -5 4 -11 16 -14 29 -8 32 -4 8 11 -10 6 -21 8 -24 3z"/>
</g>
</svg>
